<svg width="247" height="95" viewBox="0 0 247 95" fill="none" xmlns="http://www.w3.org/2000/svg">
<path d="M11.8013 74.9493C8.32524 75.3465 6.3002 74.1607 5.72619 71.392C5.54818 70.2099 5.74502 69.1138 6.31672 68.1037C6.92596 67.0463 7.78166 66.4547 8.88383 66.3288C9.68925 66.2368 10.4275 66.496 11.0984 67.1064C11.7222 67.6793 12.0752 68.3261 12.1575 69.0467C12.3852 71.0391 11.5664 72.1418 9.7012 72.3549C9.2349 72.4082 8.77769 72.3531 8.32956 72.1896C7.92867 72.0636 7.59803 71.8008 7.33764 71.4011C7.76635 72.8981 9.12526 73.5158 11.4144 73.2543C11.9231 73.1962 12.3821 73.0793 12.7915 72.9037C16.3257 71.5122 19.1593 69.0627 21.2922 65.5552C22.2345 64.0303 23.2362 61.8975 24.2973 59.1567C25.3583 56.4158 26.5048 53.107 27.7367 49.2301L34.0013 29.6403C34.3187 28.6592 34.6905 27.7793 35.1169 27.0006C35.5808 26.1746 36.0707 25.3885 36.5867 24.6425C31.3956 25.0638 26.21 26.4723 21.0298 28.8678C15.5674 31.4244 11.7085 34.4849 9.45323 38.0493C8.4031 39.7583 7.95312 41.2698 8.10327 42.5839C8.40841 45.2545 10.4898 46.3694 14.3473 45.9287C19.0951 45.3862 22.7396 43.0803 25.2807 39.0108C25.8996 38.0383 26.4568 36.901 26.9522 35.599C27.4851 34.2498 27.9303 32.6959 28.2876 30.9373C28.3809 30.626 28.5335 30.4583 28.7455 30.4341C29.0846 30.3953 29.2172 30.6163 29.1433 31.0972C29.0367 31.6676 28.9301 32.2381 28.8235 32.8085C28.7593 33.3742 28.6503 33.9234 28.4965 34.4563C28.2736 35.5125 27.9798 36.5123 27.6152 37.4557C27.2458 38.3568 26.8267 39.1992 26.358 39.9828C23.9731 44.2921 20.1736 46.7446 14.9595 47.3403C12.5433 47.6164 10.5842 47.1961 9.0824 46.0793C7.53819 44.9674 6.65711 43.4577 6.43915 41.5501C6.24541 39.8545 6.6403 38.0486 7.62382 36.1326C9.2723 32.8952 12.8986 30.0545 18.5027 27.6106C20.959 26.5569 23.5218 25.6843 26.1913 24.9928C28.8982 24.2541 31.7142 23.7176 34.6392 23.3834C35.1902 23.3205 35.7201 23.2599 36.2288 23.2018C36.7799 23.1388 37.3122 23.0995 37.8257 23.0837C40.1549 20.5416 42.7183 19.1107 45.5161 18.791C46.6183 18.6651 47.7683 18.7699 48.9661 19.1054C49.1878 19.1659 49.3131 19.3234 49.3422 19.5777C49.4003 20.0864 49.2737 20.2941 48.9625 20.2009C48.1558 19.9065 47.2862 19.8126 46.3536 19.9192C44.2765 20.1565 42.3998 21.2084 40.7235 23.0747C44.2043 22.72 47.0021 23.1518 49.1168 24.3703C52.1047 26.0902 53.6289 28.3424 53.6894 31.1269C53.8019 35.4944 51.5121 39.3204 46.8199 42.6049C43.2469 45.1604 39.4257 46.6706 35.3561 47.1356C35.0594 47.1695 34.7415 47.2058 34.4023 47.2446C34.1056 47.2785 33.7853 47.2936 33.4413 47.2899C33.2511 48.2564 32.9556 49.4282 32.5546 50.8053C32.1488 52.14 31.6565 53.6564 31.0775 55.3544C29.7608 59.241 27.5582 63.0785 24.4697 66.867C20.4751 71.7466 16.2523 74.4407 11.8013 74.9493ZM35.1327 45.7439C38.0153 45.4146 40.6478 44.212 43.0302 42.1361C45.2576 40.2068 46.9721 37.7348 48.1736 34.7203C48.7066 33.3711 48.9052 32.103 48.7696 30.916C48.5274 28.7965 47.4786 27.1341 45.6231 25.929C43.7725 24.7662 41.6911 24.4028 39.379 24.8388C38.7649 25.8537 38.1405 27.3422 37.5058 29.3043C36.8663 31.224 36.2376 33.6148 35.6199 36.4767C35.2807 38.0185 34.9651 39.5791 34.6732 41.1585C34.3813 42.7378 34.0869 44.296 33.7901 45.8329C34.0069 45.8511 34.2213 45.8481 34.4333 45.8239C34.6876 45.7948 34.9208 45.7682 35.1327 45.7439ZM52.321 66.5834C49.2265 66.937 47.4637 65.2274 47.0326 61.4546C46.8195 59.5894 47.0394 57.5674 47.6923 55.3885C48.6201 52.2335 50.1311 49.4842 52.2253 47.1406C54.2819 44.8443 56.3276 43.5799 58.3623 43.3474C61.4993 42.989 63.2784 44.6538 63.6998 48.3418C63.9178 50.2494 63.6815 52.3162 62.9911 54.5423C62.1795 57.2117 60.8539 59.7037 59.014 62.0181C56.714 64.8147 54.483 66.3364 52.321 66.5834ZM53.1786 65.0683C54.1536 64.9569 55.1461 64.4355 56.1563 63.5042C57.4389 62.3269 58.7864 60.0258 60.1987 56.6006C61.7515 52.9018 62.4068 49.9926 62.1647 47.873C61.9467 45.9655 61.0323 45.1037 59.4214 45.2877C58.1497 45.433 56.8005 46.4032 55.3737 48.1981C53.9844 49.9457 52.8767 52.0907 52.0507 54.6329C50.9302 57.9817 50.479 60.6099 50.697 62.5175C50.9101 64.3827 51.7373 65.233 53.1786 65.0683ZM64.3937 65.655C64.9666 63.5282 65.7358 60.8636 66.7011 57.6613C67.7089 54.4542 68.8378 50.8038 70.0879 46.7101C70.3301 45.8235 70.5705 45.1089 70.8092 44.5663C71.0902 44.0189 71.3409 43.5823 71.5613 43.2565C72.0398 42.5577 72.7525 42.2186 73.6997 42.2392L75.0568 42.2774C75.3584 42.2858 75.6175 42.2992 75.8343 42.3173C76.0887 42.2883 76.2982 42.2429 76.4629 42.1811C75.6636 42.7019 74.8054 44.0239 73.8885 46.147C73.0091 48.2229 72.0849 51.034 71.1159 54.5803C71.5144 53.9335 72.0183 53.0815 72.6275 52.0241C73.2319 50.9244 74.0101 49.6545 74.9621 48.2145C76.0268 46.6327 77.146 45.1521 78.3196 43.7726C79.4933 42.3931 80.6948 41.6332 81.9241 41.4927C82.8991 41.3813 83.6349 41.6193 84.1314 42.2067C84.628 42.7942 84.9223 43.4906 85.0143 44.296C85.1257 45.271 84.8435 46.1836 84.1676 47.0338C83.4918 47.8841 82.7935 48.3503 82.0729 48.4327C81.7761 48.4666 81.4509 48.4393 81.0973 48.3509C80.786 48.2576 80.6159 48.0838 80.5868 47.8295C80.5626 47.6175 80.5832 47.4219 80.6486 47.2427C80.7091 47.021 80.7249 46.783 80.6958 46.5287C80.6232 45.8928 80.2901 45.6088 79.6966 45.6766C79.4847 45.7008 79.1952 45.7983 78.8282 45.9691C78.4988 46.0926 78.0712 46.485 77.5456 47.1463C76.4846 48.3841 75.3442 49.8671 74.1245 51.5954C72.9424 53.2765 71.8456 55.141 70.8343 57.1891C69.8653 59.2323 69.13 61.442 68.6285 63.8183C68.4892 64.4784 67.8921 64.8902 66.8372 65.0537C65.4056 65.3031 64.5911 65.5036 64.3937 65.655ZM90.0903 62.268C87.3349 62.5828 85.7852 61.2353 85.4413 58.2256C85.3735 57.6321 85.3457 57.0126 85.3578 56.3671C85.4123 55.7167 85.5304 55.059 85.7121 54.3941C87.2808 48.2027 88.6362 43.1521 89.7784 39.2425L85.6453 39.7148L86.2485 38.2287L90.1909 37.7783L91.2084 33.1528C91.5802 31.5214 91.94 30.5355 92.2876 30.1952C92.5601 29.9494 93.2263 29.7659 94.286 29.6448L97.0275 29.396C96.262 30.2135 95.7255 31.1552 95.4178 32.221L93.8789 37.3569L98.7114 36.8047L98.1082 38.2908L93.4664 38.8212C93.2472 39.5333 93.0279 40.2455 92.8087 40.9576C92.6319 41.6649 92.415 42.3983 92.1583 43.1577C91.4908 45.2094 90.9385 47.1406 90.5012 48.9512C89.9658 51.0308 89.5473 52.8179 89.2457 54.3124C88.9865 55.8022 88.8629 56.9758 88.875 57.8333C88.9428 59.9298 89.6125 60.9054 90.8842 60.7601C92.0712 60.6245 93.3672 59.1881 94.7722 56.4509L95.6369 57.2539C93.9315 60.369 92.0827 62.0403 90.0903 62.268ZM105.605 38.0784C102.001 38.4901 99.1557 37.8275 97.0677 36.0907C95.3673 34.739 94.3815 32.8762 94.1102 30.5023C93.8777 28.4675 94.2696 26.4473 95.2858 24.4417C95.7679 23.3989 96.4129 22.4663 97.2207 21.6439C98.0238 20.7792 98.9449 20.0083 99.9841 19.3313C101.663 18.2376 103.472 17.3439 105.411 16.6499C107.392 15.9511 109.506 15.4734 111.753 15.2167C113.364 15.0326 115.31 14.9606 117.59 15.0006C119.871 15.0407 122.486 15.1927 125.437 15.4569C129.033 15.7331 132.063 15.9451 134.528 16.093C136.988 16.1984 138.832 16.1809 140.062 16.0404C140.782 15.9581 141.496 15.8122 142.202 15.6026C142.908 15.3931 143.59 15.1648 144.249 14.9178C146.263 14.1294 147.337 13.1907 147.47 12.1019C147.549 11.6635 147.737 11.4273 148.034 11.3934C148.288 11.3643 148.43 11.477 148.459 11.7313C148.478 11.9009 148.436 12.0989 148.333 12.3254C147.666 14.3771 146.022 15.9606 143.401 17.0761C141.806 17.7736 140.075 18.229 138.21 18.4421C137.532 18.5196 136.097 18.5547 133.906 18.5474C131.715 18.54 128.766 18.4691 125.057 18.3346C122.508 18.1964 120.227 18.1564 118.215 18.2145C116.241 18.2253 114.576 18.3082 113.219 18.4632C108.514 19.0009 104.77 20.4378 101.988 22.7741C101.245 23.4172 100.553 24.119 99.9094 24.8796C99.3087 25.6354 98.7812 26.4686 98.327 27.3794C97.461 29.1961 97.1151 30.8675 97.2895 32.3936C97.4832 34.0892 98.2293 35.3568 99.5276 36.1961C100.864 36.9883 102.74 37.2463 105.156 36.9702C108.25 36.6166 111.395 35.0119 114.59 32.1561C115.958 30.9692 117.16 29.6509 118.197 28.2011C119.234 26.7514 120.121 25.1254 120.86 23.3232C120.996 23.0071 121.254 22.8273 121.636 22.7837C122.017 22.7401 122.164 22.8951 122.076 23.2488C120.863 27.2952 118.838 30.6186 116 33.2189C114.483 34.5948 112.87 35.7023 111.162 36.5416C109.449 37.3385 107.597 37.8508 105.605 38.0784ZM105.019 63.3966C102.899 63.6388 101.04 63.3359 99.4397 62.4881C98.0239 61.748 97.2239 60.5725 97.0399 58.9617C96.9091 57.8171 97.1792 56.7986 97.8502 55.9059C98.5866 54.8341 99.5695 54.2279 100.799 54.0875C101.604 53.9954 102.338 54.2123 102.999 54.7379C103.523 55.1933 103.829 55.8026 103.916 56.5656C104.033 57.583 103.767 58.4508 103.119 59.169C102.513 59.8823 101.765 60.2899 100.875 60.3916C100.112 60.4788 99.3998 60.2595 98.7385 59.7339C98.9674 60.6095 99.6123 61.18 100.673 61.4453C101.338 61.627 102.031 61.6766 102.752 61.5943C104.023 61.449 105.207 61.099 106.303 60.5443C107.4 59.9896 108.392 59.2751 109.279 58.4006C110.75 56.9873 112.185 54.8908 113.585 52.1112C114.428 50.4689 115.275 48.6758 116.127 46.7319C117.021 44.7831 117.898 42.686 118.758 40.4406C115.043 41.3803 111.901 42.4479 109.332 43.6432C105.423 45.5071 103.611 47.6896 103.897 50.1906C104.076 51.7591 104.861 52.8074 106.253 53.3355C106.479 53.4384 106.543 53.6243 106.445 53.8932C106.342 54.1197 106.18 54.2027 105.958 54.1421C105.015 53.7775 104.122 53.1065 103.281 52.1291C102.481 51.1468 102.016 50.0834 101.885 48.9388C101.58 46.2682 103.22 44.0839 106.805 42.386C109.369 41.1482 113.555 40.0044 119.361 38.9545L121.737 32.6922C123.284 28.5646 125.136 25.4114 127.291 23.2326C129.49 21.0489 131.882 19.8093 134.468 19.5139C135.188 19.4315 135.937 19.4104 136.715 19.4504C137.021 19.5012 137.182 19.5903 137.196 19.7174C137.221 19.9294 137.106 20.0499 136.851 20.079C136.639 20.1032 136.404 20.1086 136.145 20.0953C135.885 20.082 135.65 20.0874 135.438 20.1116C131.156 20.6008 128.047 24.3917 126.109 31.4842C125.889 32.1964 125.628 33.1065 125.325 34.2147C125.06 35.2757 124.732 36.5371 124.341 37.999C126.064 37.6732 127.449 37.3862 128.494 37.138C129.007 35.6192 130.24 34.19 132.191 32.8506C132.746 32.4436 133.299 32.2087 133.85 32.1457C134.909 32.0246 135.493 32.4304 135.599 33.363C135.774 34.889 134.449 36.2643 131.626 37.4887C131.047 37.6837 130.341 37.8932 129.507 38.1172C129.18 39.0135 128.962 39.9188 128.852 40.8332C128.784 41.7428 128.784 42.6875 128.853 43.6674C128.882 43.9217 128.77 44.0634 128.515 44.0925C128.256 44.0791 128.091 43.9477 128.019 43.6982C127.866 42.7281 127.801 41.7906 127.827 40.8859C127.895 39.9763 128.036 39.1443 128.25 38.3897C127.874 38.4757 126.447 38.7675 123.97 39.2653C121.328 48.8431 117.768 55.6485 113.291 59.6816C110.913 61.7998 108.156 63.0382 105.019 63.3966ZM139.69 56.6008C136.596 56.9544 134.833 55.2448 134.402 51.472C134.189 49.6068 134.408 47.5847 135.061 45.4059C135.989 42.2508 137.5 39.5015 139.594 37.158C141.651 34.8617 143.697 33.5973 145.731 33.3648C148.868 33.0064 150.647 34.6711 151.069 38.3592C151.287 40.2667 151.051 42.3336 150.36 44.5597C149.549 47.2291 148.223 49.721 146.383 52.0355C144.083 54.832 141.852 56.3538 139.69 56.6008ZM140.548 55.0856C141.523 54.9742 142.515 54.4529 143.525 53.5215C144.808 52.3443 146.155 50.0431 147.568 46.618C149.121 42.9191 149.776 40.0099 149.534 37.8904C149.316 35.9828 148.401 35.121 146.79 35.3051C145.519 35.4504 144.169 36.4205 142.743 38.2154C141.353 39.9631 140.246 42.108 139.42 44.6502C138.299 47.9991 137.848 50.6273 138.066 52.5349C138.279 54.4001 139.106 55.2503 140.548 55.0856ZM154.955 54.8567C153.725 54.9971 153.041 54.4527 152.9 53.2234C152.813 52.4603 152.949 51.3927 153.307 50.0204L162.039 17.0722C162.11 16.9353 162.137 16.8033 162.123 16.6761C162.108 16.549 162.096 16.443 162.087 16.3582C162.014 15.7223 161.684 15.0943 161.098 14.4742L164.532 14.0819C165.719 13.9463 166.344 14.154 166.407 14.7051C166.436 14.9594 166.36 15.4191 166.178 16.084L157.431 48.9051C157.035 50.3245 156.898 51.5642 157.019 52.6239C157.13 53.5989 157.502 54.2221 158.134 54.4934L154.955 54.8567ZM171.524 28.0343C170.083 28.199 169.283 27.5819 169.123 26.183C168.963 24.7841 169.561 24.0071 170.918 23.8521C172.359 23.6874 173.16 24.3046 173.319 25.7034C173.479 27.1023 172.881 27.8793 171.524 28.0343ZM165.688 53.6303C164.459 53.7707 163.774 53.2263 163.634 51.9969C163.547 51.2339 163.682 50.1663 164.041 48.794C164.833 45.9551 165.586 43.3354 166.299 40.9349C167.013 38.5343 167.687 36.3531 168.321 34.391C168.424 34.1645 168.461 33.9241 168.432 33.6697C168.364 33.0763 168.016 32.4719 167.388 31.8566L170.878 31.3934C172.065 31.2578 172.692 31.4867 172.76 32.0802C172.779 32.2498 172.759 32.4454 172.698 32.667C172.633 32.8463 172.556 33.1127 172.467 33.4664L168.165 47.6787C167.731 49.1454 167.57 50.3662 167.681 51.3412C167.798 52.3586 168.193 53.0005 168.868 53.267L165.688 53.6303ZM180.115 51.9819C177.02 52.3355 175.257 50.6259 174.826 46.8531C174.613 44.9879 174.833 42.9659 175.486 40.787C176.414 37.632 177.925 34.8827 180.019 32.5391C182.075 30.2428 184.121 28.9784 186.156 28.7459C189.293 28.3875 191.072 30.0523 191.493 33.7403C191.711 35.6479 191.475 37.7147 190.785 39.9408C189.973 42.6102 188.647 45.1022 186.808 47.4166C184.507 50.2132 182.276 51.7349 180.115 51.9819ZM180.972 50.4668C181.947 50.3554 182.94 49.834 183.95 48.9027C185.232 47.7254 186.58 45.4243 187.992 41.9991C189.545 38.3003 190.2 35.3911 189.958 33.2716C189.74 31.364 188.826 30.5022 187.215 30.6862C185.943 30.8316 184.594 31.8017 183.167 33.5966C181.778 35.3442 180.67 37.4892 179.844 40.0314C178.724 43.3802 178.273 46.0084 178.49 47.916C178.704 49.7812 179.531 50.6315 180.972 50.4668Z" fill="white"/>
<path d="M209.232 35.8277L207.581 21.3763L212.464 20.8184C213.598 20.6889 214.548 20.7876 215.315 21.1146C216.085 21.4364 216.684 21.9232 217.111 22.5749C217.538 23.2267 217.801 23.9783 217.898 24.8298C217.995 25.6812 217.91 26.475 217.641 27.211C217.377 27.9464 216.909 28.5623 216.237 29.0585C215.564 29.55 214.665 29.86 213.541 29.9884L210.041 30.3883L209.863 28.8359L213.307 28.4425C214.083 28.3538 214.691 28.1485 215.131 27.8266C215.571 27.5047 215.87 27.1035 216.03 26.623C216.193 26.1373 216.242 25.6051 216.176 25.0265C216.11 24.4479 215.943 23.9428 215.674 23.5112C215.41 23.079 215.026 22.7608 214.521 22.5563C214.016 22.3472 213.371 22.2875 212.585 22.3772L209.509 22.7288L210.982 35.6278L209.232 35.8277ZM226.305 33.877L221.846 34.3866L220.194 19.9351L224.852 19.403C226.254 19.2428 227.486 19.3951 228.55 19.8598C229.612 20.3197 230.471 21.058 231.126 22.0745C231.78 23.0863 232.193 24.3402 232.363 25.8362C232.535 27.3415 232.415 28.6682 232.003 29.8162C231.591 30.9594 230.905 31.8813 229.946 32.5818C228.987 33.2776 227.773 33.7093 226.305 33.877ZM223.418 32.6342L226.015 32.3375C227.21 32.201 228.174 31.8573 228.907 31.3066C229.64 30.7558 230.15 30.0326 230.439 29.1371C230.727 28.2415 230.804 27.2057 230.67 26.0297C230.537 24.863 230.231 23.8804 229.754 23.0819C229.276 22.2787 228.633 21.6945 227.824 21.3295C227.014 20.9597 226.045 20.8393 224.916 20.9683L222.122 21.2876L223.418 32.6342ZM236.128 32.7547L234.477 18.3033L243.142 17.3132L243.319 18.8656L236.404 19.6557L236.962 24.5387L243.228 23.8228L243.405 25.3752L237.139 26.0911L237.878 32.5548L236.128 32.7547Z" fill="#F9A6A3"/>
</svg>
