<svg width="265" height="114" viewBox="0 0 265 114" fill="none" xmlns="http://www.w3.org/2000/svg">
<path d="M55.7188 46.7188L55.625 45.6875C55.75 45 55.75 44.5312 55.625 44.2812L55.5312 43.25C55.4688 42.9375 55.4375 42.6875 55.4375 42.5C55.5 42.25 55.5 42 55.4375 41.75L55.1562 40.7188C55.0312 40.2188 54.9375 39.9375 54.875 39.875C54.8125 39.8125 54.75 39.7188 54.6875 39.5938C54.6875 39.0938 54.5938 38.6562 54.4062 38.2812C54.2188 37.5312 54.0938 37.1562 54.0312 37.1562C53.7812 36.7188 53.5938 36.3438 53.4688 36.0312C53.3438 35.7188 53.2188 35.5 53.0938 35.375C53.0312 35 52.9375 34.75 52.8125 34.625C52.75 34.4375 52.6875 34.1875 52.625 33.875C52.375 33.5625 52.1875 33.3125 52.0625 33.125C51.9375 32.9375 51.8125 32.7812 51.6875 32.6562L51.3125 31.5312L50.8438 30.5938C50.5938 30.2188 50.4375 30.0312 50.375 30.0312C50.3125 29.9688 50.2188 29.875 50.0938 29.75C49.7812 29 49.5938 28.625 49.5312 28.625C49.2812 28.4375 49.0938 28.1875 48.9688 27.875C48.8438 27.5625 48.6562 27.3438 48.4062 27.2188L47.6562 26.4688C47.0938 26.0313 46.75 25.75 46.625 25.625C46.5 25.5 46.375 25.3438 46.25 25.1562C45.6875 24.8437 45.375 24.6562 45.3125 24.5938C45.3125 24.5313 45.2812 24.4687 45.2188 24.4062C44.5312 23.6562 43.8438 23.2188 43.1562 23.0938C42.7812 22.8438 42.4375 22.5625 42.125 22.25C41.5625 22.125 41.25 22.0312 41.1875 21.9688C41.125 21.9063 41.0625 21.8125 41 21.6875C40.6875 21.625 40.375 21.5938 40.0625 21.5938C39.75 21.5313 39.5 21.3438 39.3125 21.0312C38.9375 20.9688 38.6875 20.9375 38.5625 20.9375C38.5 20.875 38.4062 20.8125 38.2812 20.75C37.6562 20.5625 37.3438 20.4688 37.3438 20.4688L37.25 20.2812L36.2188 20.0938C35.8438 19.9062 35.5 19.8125 35.1875 19.8125C34.9375 19.8125 34.6562 19.75 34.3438 19.625L33.3125 19.3438C32.75 19.2187 32.375 19.1562 32.1875 19.1562C31.6875 19.1562 31.3438 19.125 31.1562 19.0625C31.0312 19 30.875 18.9688 30.6875 18.9688C29.875 18.8437 29.375 18.7812 29.1875 18.7812C28.6875 18.9063 28.2812 18.9688 27.9688 18.9688C27.7188 18.9063 27.4688 18.875 27.2188 18.875C26.5938 18.875 26.25 18.9063 26.1875 18.9688C25.5625 19.0312 25.125 19.125 24.875 19.25C24.375 19.1875 23.9062 19.2187 23.4688 19.3438C23.0312 19.4688 22.6875 19.5937 22.4375 19.7188C21.9375 19.8438 21.5938 20 21.4062 20.1875C21.2188 20.3125 21.0312 20.4063 20.8438 20.4688L19.8125 20.9375C19.3125 21.0625 18.9688 21.2188 18.7812 21.4062C18.2188 21.4062 17.8438 21.625 17.6562 22.0625C17.2188 22.25 16.8438 22.4062 16.5312 22.5312C16.2812 22.5937 16.0938 22.7188 15.9688 22.9062C15.6562 22.9687 15.25 23.1875 14.75 23.5625C14.4375 23.875 14.2188 24.125 14.0938 24.3125C13.9688 24.4375 13.8125 24.5625 13.625 24.6875C13 25.0625 12.625 25.25 12.5 25.25C12.125 25.75 11.875 26.0625 11.75 26.1875C11.6875 26.25 11.5312 26.3437 11.2812 26.4688C11.1562 26.7813 11 27.0312 10.8125 27.2188C10.625 27.3438 10.4375 27.4687 10.25 27.5938C9.875 28.2187 9.625 28.5625 9.5 28.625C9.1875 29 8.96875 29.2812 8.84375 29.4688C8.40625 29.9688 8.15625 30.25 8.09375 30.3125C7.53125 30.8125 7.25 31.125 7.25 31.25C7.25 31.375 7.21875 31.4688 7.15625 31.5312C6.96875 31.9687 6.8125 32.2812 6.6875 32.4688L6.3125 33.0312C5.9375 33.4062 5.75 33.8125 5.75 34.25C5.25 34.875 4.96875 35.25 4.90625 35.375C4.78125 35.5 4.6875 35.625 4.625 35.75C4.5 36.4375 4.375 36.7812 4.25 36.7812C4.0625 37.4062 3.875 37.75 3.6875 37.8125C3.6875 38.4375 3.65625 38.7812 3.59375 38.8438L3.5 38.9375C3.4375 39.1875 3.4375 39.5 3.5 39.875C3.5 40.1875 3.40625 40.4375 3.21875 40.625C3.21875 41.125 3.21875 41.5625 3.21875 41.9375C3.15625 42.25 3.125 42.5625 3.125 42.875C3.125 43.125 3.1875 43.5625 3.3125 44.1875C3.1875 44.875 3.125 45.25 3.125 45.3125L3.03125 45.4062C2.96875 45.7188 3 45.9688 3.125 46.1562C3.1875 46.3438 3.21875 46.5938 3.21875 46.9062C3.34375 47.4688 3.40625 47.875 3.40625 48.125V48.5938C3.71875 49.2188 3.8125 49.5938 3.6875 49.7188C3.8125 50.0938 3.90625 50.4688 3.96875 50.8438C3.96875 51.1562 4.03125 51.5625 4.15625 52.0625L4.53125 53.2812C4.65625 53.8438 4.75 54.1875 4.8125 54.3125C5.1875 54.875 5.40625 55.1562 5.46875 55.1562V55.25C5.65625 55.5 5.8125 55.7188 5.9375 55.9062C6 56.0938 6.0625 56.2812 6.125 56.4688C6.3125 56.8438 6.5 57.125 6.6875 57.3125C6.9375 57.4375 7.125 57.6562 7.25 57.9688L8 58.7188L8.9375 59.1875L9.875 59.75C10.5 60.0625 10.8438 60.1875 10.9062 60.125C11.5312 60.3125 11.9062 60.3438 12.0312 60.2188C12.4062 60.2812 12.6562 60.3125 12.7812 60.3125C12.9688 60.3125 13.2188 60.3438 13.5312 60.4062C13.9062 60.2188 14.125 60.0938 14.1875 60.0312C14.25 59.9688 14.3438 59.9062 14.4688 59.8438C15.0938 58.9062 15.4688 58.3125 15.5938 58.0625C15.5938 57.5 15.5938 57.125 15.5938 56.9375C15.6562 56.6875 15.6875 56.4375 15.6875 56.1875C15.5625 55.4375 15.5 54.9688 15.5 54.7812C15.5 54.0938 15.5312 53.7188 15.5938 53.6562C15.7812 53.2188 15.9375 52.9688 16.0625 52.9062C16.1875 52.8438 16.3125 52.75 16.4375 52.625C16.8125 52.75 17.1562 52.8438 17.4688 52.9062C17.7812 52.9688 18.0312 53.1562 18.2188 53.4688C18.4062 54.2188 18.4688 54.6562 18.4062 54.7812C18.4062 54.9062 18.4062 55.0312 18.4062 55.1562C18.3438 55.8438 18.3125 56.375 18.3125 56.75C18.4375 57.3125 18.4375 57.6562 18.3125 57.7812V58.8125C18.1875 59 18.0938 59.1875 18.0312 59.375C17.9688 59.5625 17.9375 59.8125 17.9375 60.125L17.2812 61.0625C17.0312 61.125 16.8438 61.25 16.7188 61.4375C16.5938 61.5625 16.375 61.6875 16.0625 61.8125C15.5 62.25 15.1562 62.5312 15.0312 62.6562C14.9062 62.7812 14.75 62.8438 14.5625 62.8438C13.875 62.9688 13.4375 63.0312 13.25 63.0312C13.125 63.0312 13 63.0938 12.875 63.2188C12.3125 63.2188 12.0312 63.25 12.0312 63.3125C12.0312 63.375 11.9688 63.4688 11.8438 63.5938C11.5312 63.2812 11.1875 63.125 10.8125 63.125C9.875 62.9375 9.125 62.7812 8.5625 62.6562L7.625 62.0938C7.1875 61.5938 6.875 61.2812 6.6875 61.1562C6.5625 60.9688 6.375 60.8125 6.125 60.6875C5.875 60.375 5.71875 60.1875 5.65625 60.125C5.53125 60.0625 5.4375 59.9062 5.375 59.6562C5.0625 59.3438 4.8125 59.0625 4.625 58.8125L3.875 58.0625C3.6875 57.625 3.4375 57.3125 3.125 57.125C3.125 56.6875 3.0625 56.4062 2.9375 56.2812C2.75 56.1562 2.65625 55.9688 2.65625 55.7188L2.375 54.6875C2.0625 53.625 1.90625 52.8125 1.90625 52.25C1.71875 52.0625 1.625 51.875 1.625 51.6875C1.5625 51.5 1.5 51.2812 1.4375 51.0312C1.4375 50.5312 1.34375 50.1875 1.15625 50C1.21875 49.5625 1.1875 49.2188 1.0625 48.9688C0.9375 48.4062 0.875 47.9375 0.875 47.5625C0.8125 46.75 0.78125 46.1875 0.78125 45.875V42.875C0.71875 42.3125 0.71875 42 0.78125 41.9375C0.84375 41.875 0.875 41.7812 0.875 41.6562C0.875 40.9688 0.875 40.625 0.875 40.625C0.8125 40.625 0.78125 40.5625 0.78125 40.4375L1.0625 39.3125C1.1875 38.9375 1.3125 38.7188 1.4375 38.6562C1.5 38.5312 1.53125 38.4062 1.53125 38.2812C1.53125 37.8438 1.5625 37.5938 1.625 37.5312L1.71875 37.25C2.03125 36.625 2.21875 36.2812 2.28125 36.2188C2.46875 35.6562 2.5625 35.25 2.5625 35C2.875 34.25 3.15625 33.7812 3.40625 33.5938C3.65625 33.0312 3.8125 32.7188 3.875 32.6562C3.9375 32.5312 4.0625 32.4062 4.25 32.2812C4.5625 31.8438 4.78125 31.5312 4.90625 31.3438C5.21875 30.6562 5.40625 30.3125 5.46875 30.3125C5.78125 29.6875 6 29.3125 6.125 29.1875C6.25 29.0625 6.40625 28.9375 6.59375 28.8125C6.65625 28.5 6.75 28.25 6.875 28.0625C7.0625 27.875 7.1875 27.625 7.25 27.3125C7.75 26.75 8.15625 26.3437 8.46875 26.0938C8.84375 25.8438 9.125 25.5625 9.3125 25.25L10.1562 24.5938C10.7188 23.9688 11.0625 23.625 11.1875 23.5625C11.375 23.4375 11.5 23.2812 11.5625 23.0938C12.0625 22.7812 12.3125 22.625 12.3125 22.625L12.5 22.5312C13.0625 22.0938 13.375 21.8437 13.4375 21.7812C13.75 21.5313 13.9375 21.4062 14 21.4062C14.125 21.3438 14.2188 21.25 14.2812 21.125C14.9688 20.8125 15.4062 20.5 15.5938 20.1875C15.9062 20 16.1562 19.875 16.3438 19.8125C16.5938 19.75 16.7812 19.625 16.9062 19.4375C17.5938 19.0625 18.0625 18.8125 18.3125 18.6875C18.5625 18.5625 18.7812 18.4375 18.9688 18.3125C19.3438 18.25 19.5625 18.1875 19.625 18.125L19.9062 17.8438C20.3438 17.8438 20.5938 17.7813 20.6562 17.6562C20.7188 17.5312 20.8438 17.4688 21.0312 17.4688C21.3438 17.5312 21.5625 17.5312 21.6875 17.4688C21.875 17.3437 22.0938 17.25 22.3438 17.1875C23.2812 17 24.0312 16.8125 24.5938 16.625C25.2188 16.4375 25.7812 16.3438 26.2812 16.3438H28.7188C29.1562 16.4062 29.4062 16.4375 29.4688 16.4375C29.5312 16.375 29.625 16.3438 29.75 16.3438L30.875 16.4375H32.5625C33.3125 16.5625 33.6875 16.5937 33.6875 16.5312C33.9375 16.6563 34.2812 16.7188 34.7188 16.7188C35.4062 16.9687 35.75 17.0938 35.75 17.0938L35.9375 17C36.4375 17.0625 36.75 17.125 36.875 17.1875C37.0625 17.25 37.1875 17.375 37.25 17.5625C37.5 17.5625 37.7188 17.6562 37.9062 17.8438C38.0938 17.9688 38.25 18.0937 38.375 18.2188C38.9375 18.2188 39.2812 18.3125 39.4062 18.5C40.0938 18.4375 40.4688 18.4375 40.5312 18.5L40.7188 18.6875C41.2812 18.875 41.625 18.9688 41.75 18.9688C41.9375 19.0312 42.0938 19.125 42.2188 19.25C42.3438 19.375 42.5312 19.4375 42.7812 19.4375C43.6562 20.125 44.4688 20.5625 45.2188 20.75C45.8438 21.25 46.2188 21.5313 46.3438 21.5938C47.0938 22.0312 47.5625 22.375 47.75 22.625C48.25 23 48.5938 23.2812 48.7812 23.4688C49.3438 24.0937 49.6562 24.4687 49.7188 24.5938C50.2812 25.1562 50.625 25.5 50.75 25.625C50.9375 25.75 51.125 25.9062 51.3125 26.0938C51.4375 26.4063 51.5625 26.6562 51.6875 26.8438C51.875 26.9688 52 27.1875 52.0625 27.5C52.3125 27.625 52.4688 27.8125 52.5312 28.0625C52.6562 28.25 52.8438 28.375 53.0938 28.4375C53.0938 28.9375 53.1875 29.2812 53.375 29.4688C53.5625 29.6562 53.7188 29.9375 53.8438 30.3125C54.0312 30.4375 54.1562 30.5938 54.2188 30.7812C54.2812 30.9688 54.4062 31.0938 54.5938 31.1562C54.7188 31.5937 54.7812 31.875 54.7812 32C54.7812 32.125 54.8125 32.25 54.875 32.375C55.125 32.875 55.2812 33.1562 55.3438 33.2188C55.4062 33.2188 55.5 33.2812 55.625 33.4062C55.75 34.0938 55.8125 34.5 55.8125 34.625C56.0625 35.125 56.25 35.4688 56.375 35.6562C56.5 35.9062 56.5938 36.1562 56.6562 36.4062C56.7188 36.5938 56.8125 36.75 56.9375 36.875C57.125 37.625 57.25 38.0625 57.3125 38.1875L57.5 38.5625C57.5625 38.6875 57.5938 38.8438 57.5938 39.0312C57.5938 39.2188 57.625 39.4062 57.6875 39.5938L57.875 40.7188L58.1562 41.75C58.1562 42.4375 58.1875 42.8125 58.25 42.875C58.3125 42.9375 58.3438 43.0312 58.3438 43.1562C58.3438 43.9688 58.4062 44.4062 58.5312 44.4688C58.4062 45.0312 58.3438 45.4688 58.3438 45.7812V47.0938L58.25 48.125C58.1875 48.4375 58.125 48.7188 58.0625 48.9688C58 49.2188 57.9062 49.5 57.7812 49.8125L57.5938 50.8438C57.3438 51.4688 57.1875 51.8125 57.125 51.875H57.0312C56.9062 52.1875 56.8438 52.5 56.8438 52.8125C56.9062 53.0625 56.875 53.3438 56.75 53.6562C56.5 54.4062 56.3125 54.7812 56.1875 54.7812C55.9375 55.3438 55.7812 55.6562 55.7188 55.7188C55.4062 56.3438 55.1875 56.8125 55.0625 57.125L54.5938 58.25C54.1562 59 53.8125 59.4688 53.5625 59.6562C53.25 60.2188 53.0312 60.625 52.9062 60.875C52.8438 61.125 52.75 61.4062 52.625 61.7188C52.25 62.3438 51.875 62.75 51.5 62.9375C51.375 63.25 51.1875 63.5625 50.9375 63.875C50.75 64.125 50.5312 64.4062 50.2812 64.7188C49.7812 65.2188 49.5 65.5625 49.4375 65.75C48.625 66.1875 48.0938 66.5312 47.8438 66.7812C47.5938 67.0312 47.2812 67.2188 46.9062 67.3438L45.9688 67.9062C45.8438 67.9062 45.6875 68 45.5 68.1875C45.3125 68.3125 45.0938 68.4062 44.8438 68.4688C44.5312 68.7188 44.1562 68.875 43.7188 68.9375C43.2812 69 42.9688 69.1562 42.7812 69.4062C42.3438 69.3438 42 69.3125 41.75 69.3125C41.25 69.5 40.8125 69.5938 40.4375 69.5938L39.3125 69.7812C38.625 69.8438 38.25 69.9062 38.1875 69.9688C38.125 69.9688 38.0312 69.9688 37.9062 69.9688H37.625C37.625 70.0938 37.6562 70.1875 37.7188 70.25C37.7812 70.375 37.8125 70.5 37.8125 70.625C37.8125 70.9375 37.7812 71.2188 37.7188 71.4688C37.7188 71.6562 37.6562 71.875 37.5312 72.125C37.6562 72.6875 37.6875 73.0312 37.625 73.1562C37.5625 73.2188 37.5312 73.2812 37.5312 73.3438C37.5312 73.9688 37.5 74.3125 37.4375 74.375C37.3125 75 37.2188 75.3438 37.1562 75.4062V75.5C37.0312 75.875 36.9688 76.2188 36.9688 76.5312C37.0312 76.7812 37 77 36.875 77.1875C36.9375 77.875 36.875 78.3125 36.6875 78.5C36.5 79.375 36.3438 79.9688 36.2188 80.2812C35.8438 80.8438 35.6562 81.1875 35.6562 81.3125C35.6562 81.4375 35.625 81.5625 35.5625 81.6875C35.25 82.25 35.0938 82.5625 35.0938 82.625C35.0938 82.625 35.0312 82.6562 34.9062 82.7188L34.25 83.5625C33.9375 84.25 33.7812 84.6562 33.7812 84.7812C33.0938 85.4688 32.75 85.9375 32.75 86.1875L32 86.9375C31.8125 87.0625 31.6562 87.1875 31.5312 87.3125C31.4688 87.5 31.375 87.6562 31.25 87.7812C30.625 88.1562 30.1875 88.4062 29.9375 88.5312C29.125 88.7812 28.5312 89 28.1562 89.1875C27.5938 89.25 27.2812 89.3125 27.2188 89.375C27.1562 89.4375 27.0312 89.5 26.8438 89.5625C26.5312 89.5625 26.2812 89.5 26.0938 89.375C25.9062 89.3125 25.6562 89.25 25.3438 89.1875C24.8438 89.1875 24.5 89.1562 24.3125 89.0938C24.125 89.0312 23.9688 89 23.8438 89C23.0312 88.9375 22.5312 88.8438 22.3438 88.7188C22.2188 88.6562 22.0625 88.625 21.875 88.625C21.8125 88.4375 21.7188 88.2812 21.5938 88.1562C21.5312 88.0938 21.4688 87.9062 21.4062 87.5938C21.0312 87.3438 20.8125 87.0312 20.75 86.6562C20.3125 86.2812 20.0938 86.0312 20.0938 85.9062C20.0938 85.7188 20.0312 85.5312 19.9062 85.3438L19.625 84.875C19.5625 84.6875 19.5 84.5 19.4375 84.3125C19.25 83.75 19.125 83.4688 19.0625 83.4688L18.9688 83.375L18.7812 82.3438V81.125C18.8438 80.5 18.875 80.1562 18.875 80.0938L19.0625 79.0625C19.25 78.5625 19.4688 78.125 19.7188 77.75C19.8438 77.625 19.9375 77.4688 20 77.2812C20.125 77.0312 20.3438 76.9062 20.6562 76.9062C21.2188 76.4062 21.5 76.125 21.5 76.0625C21.5 75.9375 21.5312 75.8438 21.5938 75.7812C21.9062 75.7188 22.125 75.625 22.25 75.5C22.375 75.3125 22.5 75.125 22.625 74.9375L23.5625 74.4688C23.9375 74.4688 24.2188 74.4062 24.4062 74.2812C24.6562 74.1562 24.9375 74.0938 25.25 74.0938L26.375 74.4688C26.875 74.5312 27.2188 74.5625 27.4062 74.5625C27.8438 74.6875 28.125 74.7812 28.25 74.8438C28.4375 74.8438 28.5938 74.875 28.7188 74.9375L29.4688 75.6875C29.5938 76.125 29.6875 76.375 29.75 76.4375C29.875 76.5 30 76.5938 30.125 76.7188C30.125 77.0938 30.1875 77.4062 30.3125 77.6562C30.5 77.8438 30.5938 78.0938 30.5938 78.4062L30.9688 79.4375C30.5938 79.625 30.3438 79.875 30.2188 80.1875C30.0938 80.5 29.875 80.75 29.5625 80.9375C29.25 80.9375 29.0312 80.9688 28.9062 81.0312C28.7812 81.0938 28.625 81.1875 28.4375 81.3125C28.125 81.125 27.8438 80.9688 27.5938 80.8438C27.4062 80.7188 27.25 80.5312 27.125 80.2812C27.1875 80.0312 27.25 79.8438 27.3125 79.7188C27.375 79.5312 27.4062 79.3125 27.4062 79.0625C27.1562 78.3125 27 77.9062 26.9375 77.8438C26.9375 77.7812 26.875 77.75 26.75 77.75C26 77.4375 25.5312 77.2812 25.3438 77.2812C24.5938 77.3438 24.2188 77.4688 24.2188 77.6562C23.8438 77.7188 23.5938 77.8438 23.4688 78.0312C23.4062 78.1562 23.3125 78.3438 23.1875 78.5938C22.5625 78.9062 22.25 79.1875 22.25 79.4375C22.25 79.625 22.1875 79.875 22.0625 80.1875C21.875 80.6875 21.7812 81.0938 21.7812 81.4062C21.9688 81.9688 22.0625 82.3125 22.0625 82.4375V83.6562C22.3125 84.2188 22.5 84.5938 22.625 84.7812C22.75 84.9062 22.8438 85.125 22.9062 85.4375L23.8438 86.1875C24.4688 86.25 24.875 86.375 25.0625 86.5625C26.0625 86.625 26.7188 86.625 27.0312 86.5625C27.4062 86.5 27.75 86.4062 28.0625 86.2812L29.0938 85.5312C29.6562 85.1562 29.9688 84.9375 30.0312 84.875C30.0938 84.75 30.1875 84.6875 30.3125 84.6875C30.4375 84.5 30.5312 84.3125 30.5938 84.125C30.7188 83.875 30.9062 83.7188 31.1562 83.6562C31.5312 83.1562 31.6875 82.8438 31.625 82.7188C32 81.9062 32.25 81.4375 32.375 81.3125C32.5625 81.1875 32.7188 81.0625 32.8438 80.9375C33.1562 80.5625 33.25 80.1875 33.125 79.8125L33.5938 78.6875C33.5938 78.3125 33.75 77.9062 34.0625 77.4688C34.0625 76.8438 34.0312 76.5312 33.9688 76.5312C33.9688 76.5312 33.9688 76.4688 33.9688 76.3438L34.1562 75.3125C34.4062 74.625 34.4688 74.2188 34.3438 74.0938C34.7188 73.7812 34.9062 73.2812 34.9062 72.5938C34.9062 72.3438 34.875 72.0625 34.8125 71.75C34.8125 71.4375 34.75 71.1875 34.625 71L34.8125 69.875C34.75 69.625 34.7188 69.4688 34.7188 69.4062C34.5312 69.3438 34.3438 69.2188 34.1562 69.0312C33.4688 68.5938 32.6875 68.1875 31.8125 67.8125C31.375 67.25 31.0938 66.9375 30.9688 66.875C30.9062 66.8125 30.8125 66.7188 30.6875 66.5938L29.9375 65.5625L29.1875 64.625C29.25 64 29.25 63.6562 29.1875 63.5938C29 62.9688 28.9062 62.6562 28.9062 62.6562L29 62.4688C28.875 61.7812 28.75 61.3125 28.625 61.0625C28.75 60.3125 28.75 59.9375 28.625 59.9375C28.75 59.6875 28.7812 59.5312 28.7188 59.4688C28.7188 59.3438 28.75 59.1562 28.8125 58.9062C29.0625 58.5938 29.2812 58.3125 29.4688 58.0625C29.6562 57.75 29.875 57.4375 30.125 57.125C30.625 56.625 30.9375 56.2812 31.0625 56.0938C31.6875 55.8438 32.0312 55.75 32.0938 55.8125L32.9375 55.1562C33.1875 55.1562 33.375 55.1562 33.5 55.1562C33.4375 54.7812 33.4062 54.4062 33.4062 54.0312C33.3438 53.2812 33.3125 52.7188 33.3125 52.3438C33.3125 51.7812 33.2188 51.3438 33.0312 51.0312C33.0312 50.5938 33 50.3125 32.9375 50.1875C32.875 50 32.8438 49.75 32.8438 49.4375C32.8438 48.8125 32.7812 48.4375 32.6562 48.3125L32.4688 47.1875C32.4062 46.625 32.3125 46.2188 32.1875 45.9688C32.375 45.5312 32.4062 45.2812 32.2812 45.2188C32.2188 45.1562 32.1875 45.0625 32.1875 44.9375C32 44.1875 31.9062 43.5938 31.9062 43.1562C31.8438 42.5938 31.75 42.1875 31.625 41.9375C31.6875 41.4375 31.6562 41 31.5312 40.625C31.4062 39.9375 31.3438 39.5312 31.3438 39.4062C31.4062 39.2188 31.4375 39.0625 31.4375 38.9375C31.3125 38.3125 31.25 37.75 31.25 37.25V35.6562C31.25 35.3438 31.2812 35.0625 31.3438 34.8125C31.4062 34.5625 31.4375 34.2812 31.4375 33.9688L31.7188 32.6562C31.7188 31.8438 31.8125 31.3438 32 31.1562C31.9375 30.9063 31.9375 30.7188 32 30.5938C32.125 30.4687 32.1875 30.3125 32.1875 30.125C32.5 29.6875 32.7812 29.1875 33.0312 28.625C33.3438 28.3125 33.5 28.125 33.5 28.0625C33.5 27.9375 33.5625 27.8437 33.6875 27.7812C34.0625 27.0937 34.2812 26.7187 34.3438 26.6562C34.4688 26.5938 34.5312 26.5312 34.5312 26.4688L35.375 25.8125C35.8125 25.625 36.0625 25.4688 36.125 25.3438C36.25 25.2187 36.4375 25.0938 36.6875 24.9688C37.3125 24.7188 37.7188 24.4687 37.9062 24.2188L38.9375 23.75C39.4375 23.875 39.75 23.9375 39.875 23.9375C40 23.875 40.0938 23.8438 40.1562 23.8438C40.4062 24.0312 40.5938 24.2188 40.7188 24.4062C40.8438 24.5938 40.9688 24.75 41.0938 24.875L40.625 25.8125C40.375 26.0625 40.1562 26.1875 39.9688 26.1875C39.8438 26.125 39.7188 26.125 39.5938 26.1875C38.9688 26.375 38.5625 26.5312 38.375 26.6562C38.25 26.7187 38.0938 26.7813 37.9062 26.8438C37.4688 27.1563 37.125 27.4687 36.875 27.7812C36.6875 28.0312 36.4375 28.25 36.125 28.4375C36 28.75 35.75 29.0938 35.375 29.4688C35.1875 30.0937 35 30.4375 34.8125 30.5C34.75 31.1875 34.6875 31.5937 34.625 31.7188C34.5625 32.4062 34.5 32.7812 34.4375 32.8438C34.25 33.3438 34.1562 33.75 34.1562 34.0625C34.1562 34.3125 34.0938 34.5312 33.9688 34.7188V36.9688L34.0625 38.1875C34.1875 38.5625 34.2188 38.8125 34.1562 38.9375C34.1562 39.0625 34.1562 39.1875 34.1562 39.3125C34.3438 39.875 34.4375 40.375 34.4375 40.8125C34.4375 41.1875 34.5938 41.5 34.9062 41.75C34.7188 42.3125 34.6562 42.7812 34.7188 43.1562C34.7812 43.4688 34.875 43.7812 35 44.0938C34.875 44.6562 34.875 45.125 35 45.5C35.125 45.8125 35.1875 46.1562 35.1875 46.5312C35.3125 47.0312 35.375 47.4375 35.375 47.75L35.5625 48.9688C35.75 49.5312 35.8438 49.8438 35.8438 49.9062L35.9375 50C35.9375 50.5625 35.9375 50.875 35.9375 50.9375C36 51 36.0312 51.0625 36.0312 51.125C35.9688 51.4375 36 51.7812 36.125 52.1562C36.125 52.6562 36.1562 53 36.2188 53.1875C36.3438 53.375 36.4062 53.5625 36.4062 53.75L36.6875 54.7812C36.6875 55.0938 36.6875 55.2812 36.6875 55.3438H36.7812L37.5312 56.0938C38.0312 56.5938 38.2812 56.9062 38.2812 57.0312C38.7812 57.7188 39.1562 58.2188 39.4062 58.5312C39.3438 59.2812 39.375 59.7188 39.5 59.8438C39.5 60.4062 39.5 60.75 39.5 60.875C39.5625 60.9375 39.5938 61.0312 39.5938 61.1562C39.3438 61.7188 39.1875 62.0312 39.125 62.0938C38.8125 62.7812 38.5938 63.25 38.4688 63.5C38.1562 63.625 37.875 63.7188 37.625 63.7812L37.7188 64.25C37.7188 64.8125 37.6875 65.1562 37.625 65.2812C37.8125 65.9062 37.8438 66.2812 37.7188 66.4062V67.1562H38.2812H38.8438C39.0938 67.1562 39.3438 67.125 39.5938 67.0625C40.1562 66.9375 40.5312 66.875 40.7188 66.875C40.9062 66.8125 41.0625 66.7188 41.1875 66.5938C41.6875 66.5938 41.9688 66.5938 42.0312 66.5938C42.0938 66.5312 42.1875 66.5 42.3125 66.5C43 66.3125 43.4062 66.1562 43.5312 66.0312C44.3438 65.7812 44.8125 65.625 44.9375 65.5625C45.125 65.5 45.3125 65.4062 45.5 65.2812C46.0625 64.9688 46.375 64.7812 46.4375 64.7188C46.5 64.5938 46.625 64.5 46.8125 64.4375L47.2812 63.7812C47.3438 63.6562 47.4375 63.5938 47.5625 63.5938C47.8125 63.4688 48 63.3438 48.125 63.2188C48.25 63.0312 48.4375 62.875 48.6875 62.75C49.0625 62.1875 49.3438 61.875 49.5312 61.8125C50.0312 61 50.375 60.4375 50.5625 60.125C50.8125 59.8125 51 59.4375 51.125 59C51.4375 58.5 51.6562 58.1562 51.7812 57.9688C51.9062 57.7812 52 57.5312 52.0625 57.2188C52.4375 56.7812 52.75 56.4375 53 56.1875C53.125 55.5625 53.2812 55.125 53.4688 54.875C53.6562 54.5625 53.7812 54.1562 53.8438 53.6562C54.0938 52.9062 54.25 52.4688 54.3125 52.3438C54.4375 52.1562 54.5 51.9062 54.5 51.5938C54.8125 51.0938 55 50.7188 55.0625 50.4688C55.125 50.2188 55.1562 49.9375 55.1562 49.625L55.5312 48.5938L55.4375 47.5625L55.7188 46.7188ZM34.8125 65.4688C34.8125 65.3438 34.8438 65.2188 34.9062 65.0938C34.7812 64.7812 34.7188 64.5312 34.7188 64.3438C34.6562 64.2188 34.625 64.125 34.625 64.0625C34.625 63.875 34.5938 63.6875 34.5312 63.5C34.5312 63.0625 34.5 62.7812 34.4375 62.6562C34.375 62.5312 34.3438 62.4062 34.3438 62.2812C34.3438 62.0312 34.4062 61.8438 34.5312 61.7188C34.4688 61.5938 34.4375 61.5 34.4375 61.4375C34.4375 61.375 34.4375 61.2812 34.4375 61.1562V60.125C34.3125 59.375 34.25 59 34.25 59L34.3438 58.8125C34.2812 58.6875 34.25 58.5938 34.25 58.5312C33.75 58.4688 33.4062 58.4375 33.2188 58.4375C32.6562 58.75 32.3438 58.9375 32.2812 59C32.2812 59 32.2188 59.0312 32.0938 59.0938L31.625 60.4062C31.5 61.2188 31.5 61.625 31.625 61.625L31.9062 62.6562C31.9062 63.0938 32.0625 63.4062 32.375 63.5938C32.375 64.0938 32.4375 64.4375 32.5625 64.625C32.6875 64.75 32.8125 64.9688 32.9375 65.2812C33.5625 65.4688 33.9688 65.7188 34.1562 66.0312C34.6562 66.5312 34.9375 66.7812 35 66.7812V66.5C34.875 65.875 34.8125 65.5312 34.8125 65.4688ZM79.8125 63.0312C80.3125 63.3438 80.5625 63.5312 80.5625 63.5938C80.625 63.5938 80.6562 63.6875 80.6562 63.875C80.9062 64 81.125 64.2188 81.3125 64.5312C81.5625 64.8438 81.625 65.1562 81.5 65.4688C81.75 66.1562 81.8125 66.625 81.6875 66.875C81.625 67.125 81.6562 67.3438 81.7812 67.5312C81.8438 68.3438 81.875 68.9688 81.875 69.4062C81.875 69.7812 81.9062 70.1562 81.9688 70.5312C81.9062 71.5312 81.8125 72.1875 81.6875 72.5C81.5625 72.8125 81.4688 73.125 81.4062 73.4375C81.3438 73.8125 81.2812 74.1875 81.2188 74.5625C81.2188 74.875 81.0938 75.125 80.8438 75.3125C80.8438 75.875 80.7188 76.25 80.4688 76.4375C80.2812 76.625 80.125 76.875 80 77.1875C79.75 77.3125 79.5312 77.4375 79.3438 77.5625C79.2188 77.6875 79.0938 77.8438 78.9688 78.0312C78.5312 78.0938 78.125 78.3125 77.75 78.6875C77.4375 78.9375 77.0312 79.125 76.5312 79.25C76.0938 79.375 75.7188 79.5938 75.4062 79.9062C74.9062 79.9062 74.625 79.9688 74.5625 80.0938C74.5625 80.2188 74.5 80.3125 74.375 80.375C73.9375 80.4375 73.4688 80.5312 72.9688 80.6562C72.4688 80.7188 71.9688 80.7188 71.4688 80.6562C71.0938 80.7812 70.8125 80.8125 70.625 80.75C70.4375 80.6875 70.25 80.6562 70.0625 80.6562C69.5 80.5312 69.125 80.5 68.9375 80.5625C68.75 80.5625 68.5938 80.4688 68.4688 80.2812C67.7812 80.2188 67.2812 80.0625 66.9688 79.8125C66.6562 79.5 66.2188 79.3125 65.6562 79.25C65.4688 78.9375 65.2188 78.7188 64.9062 78.5938C64.6562 78.4688 64.4688 78.25 64.3438 77.9375C63.8438 77.5625 63.4688 77.3438 63.2188 77.2812C63.0312 77.1562 62.9375 76.9375 62.9375 76.625C62.6875 76.5625 62.5 76.4688 62.375 76.3438C62.3125 76.1562 62.1875 76 62 75.875C61.625 75.1875 61.4688 74.8125 61.5312 74.75C61.6562 74.6875 61.6562 74.625 61.5312 74.5625C61.2812 74 61.125 73.6562 61.0625 73.5312C61 73.4062 60.9062 73.2188 60.7812 72.9688C60.5938 72.5938 60.5 72.3438 60.5 72.2188C60.5 72.0312 60.4375 71.875 60.3125 71.75C60.375 71.4375 60.3438 71.1875 60.2188 71C60.0938 70.75 60.1562 70.5312 60.4062 70.3438C60.2188 69.4688 60.1875 68.8125 60.3125 68.375C60.4375 67.875 60.4375 67.4375 60.3125 67.0625C60.5 66.625 60.5938 66.3438 60.5938 66.2188C60.6562 66.0938 60.625 66.0312 60.5 66.0312C60.6875 65.7188 60.7812 65.4062 60.7812 65.0938C60.7812 64.7812 60.8438 64.4688 60.9688 64.1562C61.4688 63.3438 61.75 62.6875 61.8125 62.1875C62.125 62.1875 62.3125 62.0938 62.375 61.9062C62.4375 61.6562 62.5938 61.4688 62.8438 61.3438C63.2188 60.7188 63.5625 60.3438 63.875 60.2188C64.1875 60.0312 64.4375 59.7812 64.625 59.4688C65.1875 59.0312 65.7188 58.7188 66.2188 58.5312C66.7188 58.3438 67.1562 58.0938 67.5312 57.7812L68.75 57.3125C69.3125 57.3125 69.7188 57.3125 69.9688 57.3125C70.2812 57.3125 70.5 57.2188 70.625 57.0312C70.9375 57.1562 71.3125 57.25 71.75 57.3125C72.25 57.3125 72.625 57.25 72.875 57.125C73.375 57.3125 73.6562 57.4062 73.7188 57.4062C73.8438 57.3438 73.9688 57.3125 74.0938 57.3125C74.6562 57.6875 75.0312 57.875 75.2188 57.875C75.9062 58.375 76.3438 58.6875 76.5312 58.8125C76.7188 58.9375 76.9375 59.0625 77.1875 59.1875C77.5 60 77.9688 60.4688 78.5938 60.5938C78.7188 61.0938 78.9062 61.5 79.1562 61.8125C79.4688 62.125 79.6875 62.5312 79.8125 63.0312ZM68.1875 77.4688C68.4375 77.5938 68.7188 77.7188 69.0312 77.8438C69.3438 77.9688 69.6562 78.0312 69.9688 78.0312C70.7188 78.1562 71.125 78.1875 71.1875 78.125C71.25 78.0625 71.3125 78.0312 71.375 78.0312C71.875 78.0938 72.1875 78.1562 72.3125 78.2188C72.4375 78.2812 72.5312 78.2812 72.5938 78.2188C73.2812 78.0312 73.6562 77.9688 73.7188 78.0312C73.7812 78.0312 73.875 78 74 77.9375C74.625 77.6875 75 77.5625 75.125 77.5625C75.3125 77.5 75.4688 77.5 75.5938 77.5625C76.4688 76.875 77.0938 76.375 77.4688 76.0625C77.9062 75.8125 78.1562 75.625 78.2188 75.5C78.2812 75.375 78.4062 75.2812 78.5938 75.2188C78.5312 74.8438 78.5625 74.5312 78.6875 74.2812C78.8125 74.0312 78.875 73.6875 78.875 73.25C79.125 72.8125 79.2188 72.3438 79.1562 71.8438C79.2188 71.0938 79.25 70.7188 79.25 70.7188C79.25 69.7188 79.2812 68.9688 79.3438 68.4688C79.4062 67.9062 79.4062 67.375 79.3438 66.875C79.2812 66.625 79.1875 66.4375 79.0625 66.3125C79 66.125 79 65.9062 79.0625 65.6562C78.625 65.0938 78.2188 64.75 77.8438 64.625L77.375 63.5938C76.875 62.9688 76.5938 62.6562 76.5312 62.6562C76.4688 62.6562 76.375 62.5938 76.25 62.4688C75.875 62.0312 75.625 61.8125 75.5 61.8125C75.375 61.8125 75.25 61.75 75.125 61.625C75.0625 61.375 74.9375 61.1875 74.75 61.0625C74.625 60.9375 74.5625 60.7188 74.5625 60.4062C74.3125 60.2812 74.0625 60.125 73.8125 59.9375C73.625 59.75 73.375 59.625 73.0625 59.5625C72.5625 59.625 72.2188 59.6562 72.0312 59.6562C71.9062 59.5938 71.7812 59.5625 71.6562 59.5625C71.5312 59.5625 71.3438 59.5938 71.0938 59.6562C70.9062 59.6562 70.7188 59.6562 70.5312 59.6562C70.2188 59.5938 69.9688 59.5938 69.7812 59.6562C69.6562 59.7188 69.5 59.7812 69.3125 59.8438C68.625 60.0938 68.1875 60.25 68 60.3125C67.8125 60.3125 67.6562 60.3438 67.5312 60.4062C66.7812 60.9688 66.375 61.4062 66.3125 61.7188C65.8125 61.6562 65.4688 61.75 65.2812 62C65.1562 62.25 64.9375 62.4375 64.625 62.5625C64.625 62.875 64.5312 63.0938 64.3438 63.2188C64.2188 63.2812 64.1562 63.4688 64.1562 63.7812C63.7812 64.1562 63.5625 64.4375 63.5 64.625C63.5 64.75 63.4375 64.8438 63.3125 64.9062C63.4375 65.2188 63.4062 65.5312 63.2188 65.8438C63.0312 66.0938 62.9688 66.4062 63.0312 66.7812C62.7188 67.4062 62.5938 67.75 62.6562 67.8125C62.7188 67.875 62.75 68 62.75 68.1875C62.75 68.9375 62.7188 69.4375 62.6562 69.6875C62.5938 69.9375 62.5938 70.1562 62.6562 70.3438C62.8438 71.0938 62.9688 71.5 63.0312 71.5625C63.3438 72.3125 63.5 72.7812 63.5 72.9688C63.5 73.1562 63.5625 73.3125 63.6875 73.4375C64.25 74.0625 64.5625 74.5 64.625 74.75C64.75 74.9375 64.9062 75.0938 65.0938 75.2188C65.7188 75.6562 66.0312 75.875 66.0312 75.875C66.0938 75.8125 66.1562 75.8125 66.2188 75.875C66.9062 76.4375 67.3125 76.9688 67.4375 77.4688H68.1875ZM101.281 66.875C101.469 65.8125 101.5 65.1875 101.375 65C101.438 64.75 101.5 64.5312 101.562 64.3438C101.688 64.0938 101.781 63.8125 101.844 63.5C102.344 63.25 102.625 63.1562 102.688 63.2188C102.812 63.2812 102.969 63.375 103.156 63.5C103.469 63.625 103.656 63.75 103.719 63.875C103.781 64 103.875 64.25 104 64.625C104.438 65 104.75 65.25 104.938 65.375C105.188 65.4375 105.406 65.4688 105.594 65.4688C106.281 65.2812 106.688 65.125 106.812 65C107 64.875 107.156 64.75 107.281 64.625C107.469 64.5 107.625 64.375 107.75 64.25C107.812 63.8125 107.844 63.5312 107.844 63.4062C107.906 63.2812 107.969 63.1562 108.031 63.0312C108.031 62.7812 107.969 62.5938 107.844 62.4688C107.781 62.2812 107.75 62.0312 107.75 61.7188C107.625 60.8438 107.312 60.0938 106.812 59.4688C106.438 59.0312 106.188 58.8125 106.062 58.8125C105.938 58.8125 105.906 58.75 105.969 58.625C105.594 58.5625 105.281 58.3438 105.031 57.9688C104.719 57.9688 104.375 57.8438 104 57.5938C103.625 57.6562 103.406 57.6562 103.344 57.5938C103.281 57.4688 103.156 57.4062 102.969 57.4062C102.344 57.7188 101.938 57.875 101.75 57.875C101.625 57.875 101.5 57.9375 101.375 58.0625C101.062 58.1875 100.781 58.4688 100.531 58.9062C99.9062 59.2188 99.5625 59.4375 99.5 59.5625C99.5 59.6875 99.4375 59.8125 99.3125 59.9375C98.875 60.3125 98.5312 60.625 98.2812 60.875C97.9688 61.5625 97.75 61.9375 97.625 62C97.5625 62.0625 97.5312 62.2188 97.5312 62.4688C97.2188 62.5312 97.0625 62.9062 97.0625 63.5938C96.8125 64.2188 96.625 64.625 96.5 64.8125C96.4375 64.9375 96.375 65.0938 96.3125 65.2812C96 65.9688 95.875 66.3438 95.9375 66.4062C96 66.4062 96.0312 66.4688 96.0312 66.5938C95.7188 66.9062 95.5 67.3125 95.375 67.8125C95.25 68.25 95.1875 68.6562 95.1875 69.0312C94.9375 69.5938 94.75 70.0625 94.625 70.4375C94.5625 70.75 94.5 71.0625 94.4375 71.375C94.5625 71.5 94.5938 71.7188 94.5312 72.0312C94.5312 72.3438 94.5312 72.625 94.5312 72.875C94.4688 73.1875 94.4688 73.5 94.5312 73.8125C94.5938 74.0625 94.5625 74.2812 94.4375 74.4688C94.5 74.7812 94.5938 75.25 94.7188 75.875C94.8438 76.4375 94.9062 76.875 94.9062 77.1875C94.8438 77.6875 94.8438 77.9688 94.9062 78.0312C94.9688 78.0938 95 78.1875 95 78.3125C94.875 78.75 94.9375 79.1562 95.1875 79.5312C95.1875 80.5938 95.125 81.4375 95 82.0625C94.9375 82.6875 94.9062 83.4062 94.9062 84.2188C95.0312 84.8438 95.1875 85.2812 95.375 85.5312C94.75 85.9062 94.4062 86.125 94.3438 86.1875C93.7188 86.5 93.25 86.6875 92.9375 86.75C92.75 86.3125 92.5 86 92.1875 85.8125C92.3125 85.5 92.3125 85.1875 92.1875 84.875C92.0625 84.5 92.0938 84.1562 92.2812 83.8438C92.2188 83.5312 92.1875 83.2188 92.1875 82.9062C92.1875 82.5312 92.1562 82.1875 92.0938 81.875C92.0312 81.5625 92 81.3125 92 81.125C92.0625 80.875 92 80.6875 91.8125 80.5625C92.0625 80.0625 92.125 79.6875 92 79.4375C92.0625 79.1875 92.0625 79.0312 92 78.9688C92 78.8438 92.0312 78.6562 92.0938 78.4062C91.9688 77.5312 92 76.875 92.1875 76.4375C92.125 75.9375 92.0312 75.6562 91.9062 75.5938C91.8438 75.4688 91.8125 75.3438 91.8125 75.2188C91.8125 74.9688 91.8438 74.7188 91.9062 74.4688C91.9688 74.2188 91.9688 73.9688 91.9062 73.7188C91.6562 72.9688 91.5312 72.4688 91.5312 72.2188C91.5938 71.9062 91.5938 71.625 91.5312 71.375C91.4688 70.6875 91.4062 70.3125 91.3438 70.25C91.3438 70.1875 91.3125 70.0938 91.25 69.9688C91.3125 69.0312 91.2812 68.375 91.1562 68C91.0312 67.5625 91.0312 67.1562 91.1562 66.7812C91.0312 65.7812 90.9062 65.1875 90.7812 65C90.7188 64.75 90.5938 64.5 90.4062 64.25C90.4062 63.4375 90.4062 62.9375 90.4062 62.75C90.4062 62.5625 90.3438 62.3125 90.2188 62C90.0312 61.5 89.875 61.1562 89.75 60.9688C89.6875 60.7812 89.5938 60.625 89.4688 60.5C89.4688 59.875 89.4062 59.5312 89.2812 59.4688C89.1562 59.3438 89.0625 59.2188 89 59.0938C88.4375 58.7812 87.9375 58.6562 87.5 58.7188C87.125 58.7812 86.7188 58.75 86.2812 58.625C86.0938 57.8125 86.0625 57.3125 86.1875 57.125C86.3125 56.875 86.375 56.5938 86.375 56.2812C87.125 56.0312 87.6562 55.875 87.9688 55.8125C88.2812 55.6875 88.6562 55.6875 89.0938 55.8125C89.6562 56.25 89.9688 56.5625 90.0312 56.75C90.1562 56.875 90.375 56.9062 90.6875 56.8438C91.125 57.2812 91.3438 57.5938 91.3438 57.7812C91.6562 58.3438 91.8438 58.7188 91.9062 58.9062C92.0312 59.0938 92.0938 59.3438 92.0938 59.6562C92.3438 60.4062 92.5 60.8125 92.5625 60.875C92.625 60.9375 92.6875 61 92.75 61.0625C92.6875 61.3125 92.7188 61.5312 92.8438 61.7188C92.9688 61.9062 93.0312 62.0938 93.0312 62.2812C92.9688 62.5938 92.9375 62.8438 92.9375 63.0312C93 63.1562 93.0312 63.2812 93.0312 63.4062C93.2188 64.2188 93.375 64.7188 93.5 64.9062C93.625 65.0312 93.625 65.1875 93.5 65.375C93.875 64.9375 94.125 64.5625 94.25 64.25C94.375 63.875 94.4375 63.4688 94.4375 63.0312C94.75 62.9062 94.9062 62.7188 94.9062 62.4688C94.9062 62.2188 94.9375 61.9688 95 61.7188C95.125 61.4688 95.2812 61.2812 95.4688 61.1562C95.6562 60.9688 95.7812 60.7188 95.8438 60.4062C96.2188 59.9062 96.4375 59.625 96.5 59.5625C96.5625 59.4375 96.5938 59.3125 96.5938 59.1875C97.0938 58.75 97.4062 58.4688 97.5312 58.3438C97.6562 58.2188 97.7812 58.0625 97.9062 57.875C98.2812 57.625 98.5312 57.4375 98.6562 57.3125C98.8438 57.1875 99.0312 57.0625 99.2188 56.9375C100.031 56.3125 100.562 55.9062 100.812 55.7188C101.125 55.4688 101.438 55.25 101.75 55.0625C102.125 55.0625 102.438 55 102.688 54.875C102.938 54.75 103.25 54.7188 103.625 54.7812C103.938 54.5312 104.312 54.5938 104.75 54.9688C105.25 55.2812 105.75 55.4375 106.25 55.4375C106.625 55.875 107.062 56.2188 107.562 56.4688C107.938 56.7188 108.156 56.9062 108.219 57.0312C108.281 57.1562 108.375 57.1875 108.5 57.125C108.812 57.625 109.094 58.125 109.344 58.625C109.656 59.0625 109.875 59.625 110 60.3125C110.188 60.75 110.25 61 110.188 61.0625C110.125 61.125 110.094 61.2188 110.094 61.3438C110.406 62.3438 110.469 63.3438 110.281 64.3438C110.219 64.5312 110.125 64.7188 110 64.9062C109.875 65.0312 109.844 65.2188 109.906 65.4688C109.719 65.5938 109.531 65.7188 109.344 65.8438C109.219 65.9688 109.094 66.1562 108.969 66.4062C108.719 66.4688 108.531 66.5938 108.406 66.7812C108.281 66.9062 108.094 67.0312 107.844 67.1562C107.469 67.4062 107.25 67.5625 107.188 67.625C107.125 67.6875 106.938 67.75 106.625 67.8125C106.188 67.875 105.906 67.875 105.781 67.8125C105.719 67.75 105.625 67.75 105.5 67.8125C104.875 68 104.438 68.0938 104.188 68.0938C104 68.0312 103.781 68.0625 103.531 68.1875C103.031 68 102.656 67.7188 102.406 67.3438C102.219 66.9062 101.844 66.75 101.281 66.875ZM125.562 43.3438C125.438 44.0938 125.281 44.5625 125.094 44.75C124.906 44.9375 124.844 45.2812 124.906 45.7812C124.406 46.4062 124.156 46.8125 124.156 47C124.219 47.125 124.219 47.25 124.156 47.375C123.906 47.9375 123.688 48.3125 123.5 48.5C123.5 48.9375 123.438 49.1875 123.312 49.25C123.25 49.3125 123.188 49.4062 123.125 49.5312C123 50.0312 122.875 50.625 122.75 51.3125C122.688 52 122.688 52.5938 122.75 53.0938C123.25 53.2188 123.625 53.25 123.875 53.1875C124.188 53.125 124.5 53.0938 124.812 53.0938C125.875 53.0312 126.531 53.0312 126.781 53.0938C127.344 53.1562 127.719 53.1875 127.906 53.1875C128.094 53.125 128.219 53 128.281 52.8125C128.344 52.9375 128.531 53.0312 128.844 53.0938C129.156 53.0938 129.375 53.0312 129.5 52.9062C129.812 53.2188 130.094 53.4375 130.344 53.5625C130.594 54.4375 130.562 54.9375 130.25 55.0625C130 55.1875 129.781 55.3438 129.594 55.5312C128.469 55.9062 127.812 55.9062 127.625 55.5312C126.938 55.4062 126.344 55.3125 125.844 55.25C125.344 55.1875 124.75 55.25 124.062 55.4375C123.5 55.5 123.031 55.5625 122.656 55.625C122.281 55.625 122 55.7188 121.812 55.9062C121.812 56.2812 121.75 56.625 121.625 56.9375C121.562 57.1875 121.594 57.4688 121.719 57.7812C121.469 58.3438 121.312 58.6875 121.25 58.8125C121.25 58.9375 121.25 59.1562 121.25 59.4688C121.188 59.5938 121.125 59.7812 121.062 60.0312C121.062 60.2188 120.969 60.375 120.781 60.5C120.969 61 120.969 61.4688 120.781 61.9062C121.031 62.4688 121.062 62.75 120.875 62.75C120.75 62.6875 120.688 62.75 120.688 62.9375C120.75 63.1875 120.781 63.375 120.781 63.5C120.781 63.625 120.812 63.8438 120.875 64.1562C120.875 64.9062 120.844 65.4375 120.781 65.75C120.719 66 120.688 66.2812 120.688 66.5938C120.75 67.2188 120.75 67.625 120.688 67.8125C120.688 67.9375 120.688 68.0938 120.688 68.2812C120.688 68.5938 120.688 69 120.688 69.5C120.75 69.9375 120.812 70.2812 120.875 70.5312C120.938 70.7188 120.969 70.9062 120.969 71.0938C121.031 71.2812 121.031 71.4688 120.969 71.6562C120.969 71.7812 120.969 71.9688 120.969 72.2188C121.031 72.4688 121.094 72.7188 121.156 72.9688C121.281 73.1562 121.406 73.4062 121.531 73.7188C121.531 73.8438 121.5 74 121.438 74.1875C121.375 74.375 121.406 74.5938 121.531 74.8438C121.844 75.7188 121.969 76.2812 121.906 76.5312C121.906 76.7188 121.969 76.9688 122.094 77.2812C122.344 77.7812 122.469 78.125 122.469 78.3125C122.469 78.5 122.5 78.6875 122.562 78.875C122.688 79.1875 122.812 79.5 122.938 79.8125C123.125 80.0625 123.281 80.3125 123.406 80.5625C123.344 80.9375 123.375 81.25 123.5 81.5C123.688 81.75 123.875 82 124.062 82.25C124.625 82.875 124.875 83.1875 124.812 83.1875C125.188 83.5625 125.469 83.7812 125.656 83.8438C125.844 83.9062 125.938 84.0938 125.938 84.4062C126.562 84.5938 127.125 84.875 127.625 85.25C127.938 85 128.188 84.9062 128.375 84.9688C128.562 85.0312 128.719 85.125 128.844 85.25C128.969 85.375 129.094 85.5 129.219 85.625C129.344 85.6875 129.531 85.75 129.781 85.8125C129.781 86.0625 129.781 86.2812 129.781 86.4688C129.844 86.7188 129.969 86.8438 130.156 86.8438C129.531 87.2812 129.125 87.4688 128.938 87.4062C128.812 87.4062 128.719 87.4062 128.656 87.4062C128.094 88.0938 127.688 88.375 127.438 88.25C127.188 88.125 126.906 88.0938 126.594 88.1562C126.219 87.7188 125.938 87.4688 125.75 87.4062C125.625 87.3438 125.531 87.2188 125.469 87.0312C124.594 86.4062 123.906 86.0938 123.406 86.0938C122.781 85.4688 122.344 85.0625 122.094 84.875C121.844 84.6875 121.594 84.4688 121.344 84.2188C121.344 83.5938 121.281 83.2812 121.156 83.2812C121.031 83.2188 120.906 83.125 120.781 83C120.531 82.375 120.406 81.875 120.406 81.5C120.406 81.0625 120.25 80.7188 119.938 80.4688C120 80.0312 119.938 79.7188 119.75 79.5312C119.562 79.3438 119.406 79.0938 119.281 78.7812C119.219 78.4688 119.219 78.1875 119.281 77.9375C119.344 77.6875 119.312 77.4062 119.188 77.0938C118.938 76.3438 118.781 75.9375 118.719 75.875C118.656 75.8125 118.625 75.75 118.625 75.6875C118.688 75.3125 118.625 74.9688 118.438 74.6562C118.312 74.2812 118.312 73.9062 118.438 73.5312C118.25 72.9062 118.125 72.4062 118.062 72.0312C118 71.6562 117.969 71.3125 117.969 71C117.969 70.8125 117.969 70.6562 117.969 70.5312C118.031 70.3438 118.062 70.1562 118.062 69.9688C118 69.6562 117.938 69.2812 117.875 68.8438C117.875 68.3438 117.875 67.875 117.875 67.4375C117.875 67.25 117.875 67.0625 117.875 66.875C117.938 66.6875 118 66.4688 118.062 66.2188C118.125 65.5312 118.125 65.1562 118.062 65.0938C118.062 65.0312 118.062 64.9688 118.062 64.9062C118.062 64.7188 118.062 64.5 118.062 64.25C118.125 64 118.188 63.8125 118.25 63.6875C118.062 63.375 118 63.0312 118.062 62.6562C118.188 62.2812 118.25 61.9062 118.25 61.5312C118.25 61.3438 118.25 61.125 118.25 60.875C118.25 60.625 118.219 60.4375 118.156 60.3125C118.156 59.875 118.125 59.5938 118.062 59.4688C118.062 59.3438 118.125 59.2188 118.25 59.0938C118.438 58.3438 118.5 57.9688 118.438 57.9688C118.438 57.9688 118.438 57.9375 118.438 57.875C118.438 57.6875 118.469 57.4375 118.531 57.125C118.656 56.75 118.688 56.4375 118.625 56.1875C118.312 56.1875 117.969 56.2812 117.594 56.4688C117.219 56.6562 116.906 56.625 116.656 56.375C116.531 56.5 116.375 56.5938 116.188 56.6562C116 56.6562 115.781 56.6875 115.531 56.75C114.906 56.9375 114.406 57.0938 114.031 57.2188C113.719 57.2812 113.312 57.25 112.812 57.125C112.438 56.5625 112.156 56.1875 111.969 56C111.844 55.75 111.844 55.4375 111.969 55.0625C112.281 54.9375 112.625 54.875 113 54.875C113.438 54.8125 113.75 54.6562 113.938 54.4062C114.25 54.4688 114.562 54.5 114.875 54.5C115.188 54.4375 115.562 54.375 116 54.3125C116.125 54.0625 116.406 53.9688 116.844 54.0312C117.281 54.0938 117.688 54.0625 118.062 53.9375C118.875 53.5625 119.312 53.2812 119.375 53.0938C119.438 52.8438 119.531 52.5312 119.656 52.1562C119.844 51.6562 119.906 51.375 119.844 51.3125C119.781 51.1875 119.781 51.0312 119.844 50.8438C119.969 50.4062 120.031 50.125 120.031 50C120.094 49.8125 120.062 49.6875 119.938 49.625C120.312 49.125 120.469 48.8438 120.406 48.7812C120.406 48.7188 120.406 48.625 120.406 48.5C120.719 48.0625 120.875 47.7812 120.875 47.6562C120.875 47.4688 120.969 47.3438 121.156 47.2812C121.094 46.8438 121.156 46.5312 121.344 46.3438C121.594 46.0938 121.812 45.8125 122 45.5C122.062 44.9375 122.156 44.3438 122.281 43.7188C122.781 43.0312 123.062 42.6875 123.125 42.6875C123.25 42.6875 123.375 42.625 123.5 42.5C124 42.375 124.281 42.2812 124.344 42.2188C124.469 42.1562 124.594 42.125 124.719 42.125C124.969 42.5 125.094 42.7812 125.094 42.9688C125.156 43.0938 125.312 43.2188 125.562 43.3438ZM159.5 47.0938C159.25 47.2812 159 47.4375 158.75 47.5625C158.5 47.625 158.312 47.75 158.188 47.9375C157.75 47.9375 157.375 48.0625 157.062 48.3125C156.75 48.5625 156.438 48.75 156.125 48.875L154.812 49.5312C154.125 49.6562 153.75 49.7812 153.688 49.9062C153.688 49.9688 153.625 50.0312 153.5 50.0938C152.812 50.4062 152.406 50.5625 152.281 50.5625C152.156 50.5 152 50.4688 151.812 50.4688C151.625 50.3438 151.5 50.1875 151.438 50C151.375 49.8125 151.281 49.6562 151.156 49.5312C151.219 49.2188 151.281 49 151.344 48.875C151.469 48.75 151.594 48.5312 151.719 48.2188C152.406 47.9062 152.812 47.7188 152.938 47.6562C153.062 47.5938 153.219 47.5312 153.406 47.4688C154.094 47.0938 154.531 46.9062 154.719 46.9062C154.906 46.8438 155.062 46.75 155.188 46.625C155.812 46.375 156.188 46.1875 156.312 46.0625C156.5 45.875 156.75 45.7812 157.062 45.7812C157.438 45.6562 157.781 45.5 158.094 45.3125C158.406 45.125 158.781 44.9688 159.219 44.8438C159.344 44.3438 159.344 43.875 159.219 43.4375C159.156 42.9375 159.094 42.4688 159.031 42.0312C159.094 41.5938 159.062 41.25 158.938 41C159 40.5 159 40.2188 158.938 40.1562C158.875 40.0938 158.844 40 158.844 39.875C158.844 39.5625 158.844 39.2812 158.844 39.0312C158.844 38.7188 158.812 38.4062 158.75 38.0938C158.688 37.5312 158.656 37.1875 158.656 37.0625C158.719 36.9375 158.75 36.8125 158.75 36.6875C158.75 36.1875 158.719 35.7188 158.656 35.2812C158.594 34.8438 158.531 34.4062 158.469 33.9688C158.469 33.7188 158.469 33.4688 158.469 33.2188C158.531 32.9688 158.531 32.6875 158.469 32.375C158.406 31.625 158.406 31.2187 158.469 31.1562C158.531 31.0938 158.562 31 158.562 30.875C158.625 30.625 158.625 30.4062 158.562 30.2188C158.562 29.9688 158.625 29.75 158.75 29.5625C158.125 29.4375 157.562 29.4063 157.062 29.4688C156.562 29.5312 156 29.4688 155.375 29.2812C154.688 29.2812 154.219 29.2812 153.969 29.2812C153.719 29.2812 153.375 29.2812 152.938 29.2812C152.062 29.1562 151.5 29.125 151.25 29.1875C151 29.25 150.719 29.25 150.406 29.1875C150.094 29.1875 149.781 29.1875 149.469 29.1875C149.219 29.125 148.938 29.0625 148.625 29C148 28.875 147.625 28.8438 147.5 28.9062C147.375 28.9062 147.25 28.9062 147.125 28.9062L146.094 28.8125C145.906 28.8125 145.719 28.8125 145.531 28.8125C145.344 28.8125 145.125 28.875 144.875 29C144.188 28.875 143.719 28.875 143.469 29C143.156 28.875 142.812 28.8438 142.438 28.9062C142.125 28.9062 141.812 28.9062 141.5 28.9062C141.188 28.9062 140.906 28.9062 140.656 28.9062C140.406 28.8438 140.125 28.875 139.812 29C139.562 29.0625 139.344 29.1562 139.156 29.2812C138.969 29.3437 138.781 29.375 138.594 29.375C138.406 29.4375 138.219 29.4688 138.031 29.4688C137.844 29.4063 137.656 29.4063 137.469 29.4688C137.156 29.5938 136.875 29.75 136.625 29.9375C136.375 30.125 136.062 30.1563 135.688 30.0312C135 30.2812 134.5 30.5 134.188 30.6875C133.875 30.8125 133.5 30.9063 133.062 30.9688C132.875 31.0938 132.719 31.2187 132.594 31.3438C132.469 31.4688 132.25 31.5625 131.938 31.625C131.688 31.75 131.5 31.9687 131.375 32.2812C131.25 32.5312 131.031 32.6875 130.719 32.75C130.531 33.0625 130.375 33.375 130.25 33.6875C130.125 33.9375 129.938 34.1562 129.688 34.3438C129.562 34.9062 129.375 35.375 129.125 35.75C129.25 36.0625 129.281 36.3438 129.219 36.5938C129.094 36.8438 129.156 37.125 129.406 37.4375C129.094 37.5 129.031 37.6875 129.219 38C129.406 38.25 129.375 38.4062 129.125 38.4688C129.25 39.3438 129.344 40.0625 129.406 40.625C129.469 41.125 129.625 41.5938 129.875 42.0312C130.312 42.5312 130.562 42.8125 130.625 42.875C130.625 42.9375 130.656 43 130.719 43.0625C131.094 43.4375 131.375 43.7188 131.562 43.9062C131.812 44.0938 132.062 44.25 132.312 44.375C132.625 44.3125 132.906 44.2812 133.156 44.2812C133.469 44.2188 133.688 44.0312 133.812 43.7188C134.125 43.7812 134.375 43.75 134.562 43.625C134.75 43.5 134.938 43.375 135.125 43.25C135.25 43.0625 135.344 42.875 135.406 42.6875C135.531 42.4375 135.719 42.2812 135.969 42.2188C136.094 41.9062 136.094 41.5938 135.969 41.2812C135.906 40.9062 135.906 40.5625 135.969 40.25C136.094 39.5 136.094 39.0312 135.969 38.8438C135.906 38.6562 135.938 38.4375 136.062 38.1875C135.625 37.3125 135.25 36.7812 134.938 36.5938C134.688 36.3438 134.219 36.2812 133.531 36.4062C133.469 36.2812 133.375 36.1562 133.25 36.0312C133.125 35.9062 133.062 35.6875 133.062 35.375L133.531 34.4375C134.156 34.125 134.5 34 134.562 34.0625C134.688 34.0625 134.844 34.0625 135.031 34.0625C135.344 34.0625 135.562 34.0625 135.688 34.0625C135.812 34 136.031 34.0312 136.344 34.1562C136.844 34.3438 137.094 34.5 137.094 34.625C137.156 34.75 137.281 34.75 137.469 34.625C137.531 34.9375 137.625 35.1562 137.75 35.2812C137.938 35.4062 138 35.625 137.938 35.9375C138.438 36.5625 138.656 37.3125 138.594 38.1875C138.594 39.0625 138.656 39.9375 138.781 40.8125C138.656 41.4375 138.5 41.875 138.312 42.125C138.188 42.375 138.156 42.5938 138.219 42.7812C137.969 43.0938 137.812 43.3125 137.75 43.4375C137.688 43.5 137.688 43.625 137.75 43.8125C137.562 44 137.375 44.1875 137.188 44.375C137.062 44.5 136.875 44.5938 136.625 44.6562C136.562 44.9688 136.406 45.1562 136.156 45.2188C135.969 45.2188 135.875 45.3438 135.875 45.5938L134.844 45.875C133.781 46.3125 133.062 46.625 132.688 46.8125C132.375 47 132 47.0312 131.562 46.9062C131.312 46.8438 131.094 46.75 130.906 46.625C130.719 46.4375 130.531 46.25 130.344 46.0625C129.719 45.75 129.312 45.5312 129.125 45.4062C128.875 45.2812 128.625 45.1562 128.375 45.0312C128.375 44.7812 128.312 44.5938 128.188 44.4688C128 44.2812 127.844 44.0938 127.719 43.9062C127.781 43.5938 127.75 43.3438 127.625 43.1562C127.5 42.9688 127.375 42.8125 127.25 42.6875C127.375 42.4375 127.375 42.25 127.25 42.125C127.125 41.9375 127 41.75 126.875 41.5625C126.812 41.3125 126.812 41.0938 126.875 40.9062C126.875 40.7188 126.875 40.5 126.875 40.25C126.75 39.5625 126.719 39.1875 126.781 39.125C126.781 39.0625 126.781 38.9688 126.781 38.8438C126.781 38.5312 126.75 38.3125 126.688 38.1875C126.562 38.0625 126.562 37.9375 126.688 37.8125C126.5 37.3125 126.438 37.0312 126.5 36.9688C126.562 36.9062 126.625 36.8125 126.688 36.6875C126.75 36.4375 126.781 36.1562 126.781 35.8438C126.719 35.5312 126.719 35.25 126.781 35C127.219 34.3125 127.406 33.8438 127.344 33.5938C127.531 33.0938 127.719 32.8438 127.906 32.8438C128.031 32.7812 128.062 32.5938 128 32.2812C128.438 31.8438 128.781 31.375 129.031 30.875C129.219 30.75 129.375 30.625 129.5 30.5C129.625 30.375 129.812 30.3125 130.062 30.3125C130.688 29.8125 131.062 29.5625 131.188 29.5625C131.25 29.5625 131.344 29.5312 131.469 29.4688C131.781 29.3437 132.031 29.1875 132.219 29C132.406 28.8125 132.594 28.6563 132.781 28.5312C132.906 28.4688 133.062 28.4375 133.25 28.4375C133.5 28.4375 133.688 28.4062 133.812 28.3438C134.625 27.8437 135.156 27.5938 135.406 27.5938C135.719 27.5313 136.125 27.4375 136.625 27.3125C136.812 27.25 137 27.1875 137.188 27.125C137.438 27 137.656 26.9062 137.844 26.8438C138.031 26.7813 138.219 26.7813 138.406 26.8438C138.656 26.8438 138.844 26.8125 138.969 26.75C139.594 26.5625 140 26.5 140.188 26.5625C140.375 26.5625 140.594 26.5 140.844 26.375C141.344 26.125 141.594 26.0313 141.594 26.0938C141.656 26.1562 141.75 26.2188 141.875 26.2812C142.438 26.2188 142.719 26.2188 142.719 26.2812C142.781 26.3437 142.875 26.375 143 26.375C143.25 26.375 143.469 26.375 143.656 26.375C143.844 26.3125 144.094 26.3125 144.406 26.375C144.656 26.375 144.906 26.375 145.156 26.375C145.406 26.3125 145.656 26.2812 145.906 26.2812C146.031 26.2812 146.188 26.3125 146.375 26.375C146.625 26.375 146.812 26.375 146.938 26.375C147.062 26.375 147.25 26.3437 147.5 26.2812C147.812 26.2188 148.062 26.2188 148.25 26.2812C148.625 26.3437 148.844 26.375 148.906 26.375C149.031 26.3125 149.156 26.2812 149.281 26.2812C149.906 26.4063 150.312 26.4688 150.5 26.4688C150.688 26.4688 150.844 26.5625 150.969 26.75C151.656 26.75 152.031 26.7813 152.094 26.8438C152.156 26.9062 152.25 26.9375 152.375 26.9375C152.625 26.9375 152.875 26.9062 153.125 26.8438C153.438 26.7813 153.719 26.75 153.969 26.75C154.844 26.75 155.375 26.7813 155.562 26.8438C155.812 26.9062 156.062 26.9375 156.312 26.9375C157.062 26.875 157.531 26.875 157.719 26.9375C157.969 27 158.188 27.0312 158.375 27.0312C158.688 27.0312 158.938 27 159.125 26.9375C159.375 26.875 159.594 26.9062 159.781 27.0312C159.906 26.9062 160.031 26.8125 160.156 26.75C160.344 26.625 160.406 26.4063 160.344 26.0938C160.656 25.5312 160.938 25.1875 161.188 25.0625C161.438 24.875 161.594 24.6875 161.656 24.5C161.969 24.0625 162.062 23.7813 161.938 23.6562C161.875 23.4688 161.906 23.375 162.031 23.375C162.406 23.0625 162.594 22.875 162.594 22.8125C162.594 22.75 162.656 22.6875 162.781 22.625C163.281 22.1875 163.562 21.9688 163.625 21.9688C163.688 21.9688 163.719 21.9063 163.719 21.7812C164.406 21.5313 164.75 21.4062 164.75 21.4062C165.062 21.2812 165.281 21.1563 165.406 21.0312C165.531 20.8438 165.75 20.6875 166.062 20.5625C166.75 20.125 167.188 19.8438 167.375 19.7188C167.625 19.5937 168 19.5312 168.5 19.5312C169.125 19.5937 169.469 19.5937 169.531 19.5312C169.594 19.4688 169.688 19.4375 169.812 19.4375C170.062 19.4375 170.281 19.4688 170.469 19.5312C170.656 19.5937 170.875 19.625 171.125 19.625C171.688 19.6875 172.031 19.7188 172.156 19.7188C172.781 20.0938 173.094 20.2812 173.094 20.2812C173.594 20.5938 173.906 20.8438 174.031 21.0312C174.281 21.4062 174.531 21.6562 174.781 21.7812C174.969 22.2813 175 22.7812 174.875 23.2812C174.5 23.8438 174.219 24.2188 174.031 24.4062C173.844 24.5938 173.656 24.8125 173.469 25.0625C172.969 25.1875 172.531 25.4062 172.156 25.7188C171.844 25.9687 171.469 26.1875 171.031 26.375C170.406 26.75 170.062 26.9688 170 27.0312C170 27.0937 169.938 27.1875 169.812 27.3125C169.5 27.25 169.25 27.2812 169.062 27.4062C168.938 27.4687 168.812 27.5625 168.688 27.6875C168.5 27.5625 168.312 27.5938 168.125 27.7812C167.938 27.9063 167.75 27.9063 167.562 27.7812C166.938 28.0938 166.375 28.3125 165.875 28.4375C165.688 28.5 165.469 28.5312 165.219 28.5312C165.031 28.5312 164.875 28.625 164.75 28.8125C164.5 28.75 164.188 28.75 163.812 28.8125C163.438 28.8125 163.094 28.8438 162.781 28.9062C162.219 29.0313 161.844 29.1875 161.656 29.375C161.656 29.6875 161.594 30.0312 161.469 30.4062C161.344 30.7188 161.281 31.0312 161.281 31.3438C161.281 31.9062 161.25 32.3438 161.188 32.6562C161.125 32.9062 161.156 33.1875 161.281 33.5C161.406 34.0625 161.438 34.4375 161.375 34.625C161.375 34.75 161.375 34.875 161.375 35C161.375 35.3125 161.406 35.5938 161.469 35.8438C161.531 36.0312 161.562 36.3438 161.562 36.7812V37.8125C161.625 38.0625 161.688 38.2812 161.75 38.4688C161.812 38.6562 161.75 38.9062 161.562 39.2188C161.75 39.4688 161.781 39.6875 161.656 39.875C161.594 40.0625 161.656 40.25 161.844 40.4375C161.719 41.0625 161.656 41.4062 161.656 41.4688C161.719 41.4688 161.781 41.5312 161.844 41.6562C161.906 42.2812 161.969 42.6875 162.031 42.875C162.156 43.0625 162.25 43.2188 162.312 43.3438C162.938 43.0312 163.625 42.7812 164.375 42.5938C165.188 42.4062 166.031 42.25 166.906 42.125C167.344 41.8125 167.594 41.625 167.656 41.5625C167.719 41.5 167.812 41.5 167.938 41.5625C168.125 41.375 168.312 41.2188 168.5 41.0938C168.688 40.9688 168.938 40.8438 169.25 40.7188C169.625 41.1562 169.812 41.375 169.812 41.375C169.875 41.3125 169.938 41.3438 170 41.4688C170 41.7812 170.062 42 170.188 42.125C170.312 42.1875 170.406 42.3438 170.469 42.5938C169.906 43.1562 169.594 43.5625 169.531 43.8125C169.469 44.0625 169.375 44.25 169.25 44.375C168.938 44.25 168.594 44.1562 168.219 44.0938C167.906 44.0312 167.625 44.1562 167.375 44.4688C167.188 44.3438 166.969 44.3438 166.719 44.4688C166.469 44.5938 166.219 44.7188 165.969 44.8438L164.938 45.125C164.188 45.125 163.656 45.2188 163.344 45.4062C163.031 45.5312 162.719 45.6562 162.406 45.7812C162.406 46.2188 162.438 46.625 162.5 47C162.625 47.375 162.719 47.7812 162.781 48.2188C162.719 48.9062 162.75 49.4688 162.875 49.9062C163 50.2812 163 50.6562 162.875 51.0312C162.938 51.9062 163 52.5 163.062 52.8125C163.188 53.125 163.219 53.5 163.156 53.9375C163.219 54.4375 163.281 54.75 163.344 54.875C163.406 55 163.438 55.1562 163.438 55.3438C163.562 55.9688 163.594 56.3125 163.531 56.375C163.469 56.4375 163.469 56.5938 163.531 56.8438C163.781 57.5312 163.875 57.9062 163.812 57.9688C163.812 58.0312 163.812 58.125 163.812 58.25C163.938 58.5625 163.969 58.8438 163.906 59.0938C163.906 59.3438 163.938 59.625 164 59.9375C164.188 60.625 164.25 61.0938 164.188 61.3438C164.125 61.5312 164.094 61.75 164.094 62C164.094 62.25 164.125 62.5 164.188 62.75C164.312 62.9375 164.281 63.125 164.094 63.3125C164.281 63.8125 164.344 64.125 164.281 64.25C164.219 64.375 164.188 64.5 164.188 64.625C164.312 65.25 164.344 65.5938 164.281 65.6562C164.281 65.6562 164.281 65.6875 164.281 65.75C164.344 66.125 164.344 66.4688 164.281 66.7812C164.219 67.0312 164.188 67.2188 164.188 67.3438C164.25 68.0312 164.25 68.4062 164.188 68.4688C164.125 68.4688 164.094 68.5312 164.094 68.6562C164.094 69.1562 164.094 69.4688 164.094 69.5938C164.156 69.6562 164.188 69.75 164.188 69.875C164.062 70.5 164.031 70.9375 164.094 71.1875C164.156 71.375 164.062 71.5625 163.812 71.75C163.938 72.1875 163.938 72.5312 163.812 72.7812C163.625 73.4688 163.531 73.8438 163.531 73.9062C163.594 73.9688 163.594 74.0625 163.531 74.1875L162.781 76.3438C162.656 76.6562 162.531 76.9375 162.406 77.1875C162.281 77.4375 162.188 77.7188 162.125 78.0312C161.75 78.5938 161.531 78.9375 161.469 79.0625C161.406 79.125 161.406 79.25 161.469 79.4375C160.969 80.125 160.75 80.5 160.812 80.5625C160.5 81.0625 160.25 81.375 160.062 81.5C159.875 81.625 159.719 81.7812 159.594 81.9688C158.969 82.6562 158.531 83.2188 158.281 83.6562C158.031 84.0938 157.688 84.4688 157.25 84.7812C156.438 85.4062 155.906 85.9062 155.656 86.2812C155.156 86.4062 154.906 86.5 154.906 86.5625C154.906 86.6875 154.844 86.75 154.719 86.75C153.781 87.125 153.062 87.4375 152.562 87.6875C152.125 88 151.656 88.25 151.156 88.4375C150.406 88.6875 150.031 88.8125 150.031 88.8125C149.844 88.875 149.594 88.9688 149.281 89.0938C148.969 89.2188 148.656 89.2188 148.344 89.0938C148.156 89.1562 147.969 89.25 147.781 89.375C147.594 89.5 147.344 89.5 147.031 89.375C146.344 89.3125 145.969 89.25 145.906 89.1875C145.844 89.1875 145.75 89.1875 145.625 89.1875C144.938 89.1875 144.531 89.1562 144.406 89.0938C144.281 89.0938 144.156 89.0625 144.031 89C143.594 88.8125 143.312 88.6875 143.188 88.625C143.062 88.625 143 88.6875 143 88.8125C142.312 88.375 141.906 88.125 141.781 88.0625C141.656 88.0625 141.5 87.9688 141.312 87.7812C140.812 87.3438 140.469 87.0938 140.281 87.0312C140.156 87.0312 140.156 86.9375 140.281 86.75C139.906 86.5 139.562 86.25 139.25 86C138.938 85.75 138.594 85.5 138.219 85.25C138.094 84.875 137.875 84.5938 137.562 84.4062C137.5 83.9062 137.406 83.5938 137.281 83.4688C137.156 83.2812 137.031 83.125 136.906 83C136.656 82.5 136.469 82.2188 136.344 82.1562C136.281 82.0938 136.25 82.0312 136.25 81.9688C136.125 81.0938 135.969 80.4688 135.781 80.0938C135.906 79.5938 135.875 79.0625 135.688 78.5C135.5 77.9375 135.438 77.3438 135.5 76.7188C135.5 76.4062 135.531 76.0938 135.594 75.7812C135.719 75.4688 135.719 75.1875 135.594 74.9375C135.781 74.5 135.875 74 135.875 73.4375C135.938 72.8125 136.031 72.1875 136.156 71.5625C136.469 70.875 136.688 70.4375 136.812 70.25C136.938 70.0625 136.969 69.8125 136.906 69.5C137.094 69.3125 137.25 69.0938 137.375 68.8438C137.562 68.5938 137.594 68.375 137.469 68.1875C137.719 67.875 137.906 67.5625 138.031 67.25C138.219 66.9375 138.375 66.5938 138.5 66.2188C138.875 66.2188 139.125 66.0938 139.25 65.8438C139.375 65.5938 139.562 65.4062 139.812 65.2812C140.438 65.0938 140.812 64.9375 140.938 64.8125C141.125 64.625 141.406 64.5625 141.781 64.625C142.094 64.3125 142.531 64.0312 143.094 63.7812C143.656 63.5312 144.219 63.4688 144.781 63.5938C145.469 63.5312 145.844 63.5312 145.906 63.5938C146.031 63.6562 146.25 63.6562 146.562 63.5938C146.625 63.7188 146.75 63.8125 146.938 63.875C147.125 63.875 147.344 63.9375 147.594 64.0625C148.094 64.3125 148.438 64.4375 148.625 64.4375C148.812 64.375 148.969 64.4062 149.094 64.5312C149.406 64.6562 149.625 64.8125 149.75 65C149.938 65.1875 150.156 65.3438 150.406 65.4688C150.781 66.1562 151.031 66.5625 151.156 66.6875C151.281 66.75 151.375 66.8125 151.438 66.875C151.688 67.8125 151.875 68.4062 152 68.6562C152.375 69.3438 152.562 69.75 152.562 69.875C152.562 70 152.594 70.125 152.656 70.25C152.719 70.9375 152.812 71.375 152.938 71.5625C153.188 72.3125 153.281 72.8125 153.219 73.0625C153.219 73.3125 153.281 73.5625 153.406 73.8125C153.156 74.375 153.031 74.7188 153.031 74.8438C153.094 74.9062 153.062 75.0312 152.938 75.2188C152.25 75.4688 151.906 75.6562 151.906 75.7812C151.906 75.8438 151.844 75.9375 151.719 76.0625C151.156 75.9375 150.656 75.8125 150.219 75.6875C149.969 75.0625 149.906 74.6875 150.031 74.5625C150.156 74.375 150.281 74.2188 150.406 74.0938C150.344 73.8438 150.312 73.625 150.312 73.4375C150.375 73.25 150.375 73.0312 150.312 72.7812C150.25 72.0312 150.219 71.625 150.219 71.5625C150.281 71.5 150.312 71.4062 150.312 71.2812C150.062 71.0938 149.938 70.875 149.938 70.625C150 70.375 149.906 70.2188 149.656 70.1562C149.844 69.8438 149.844 69.5938 149.656 69.4062C149.531 69.2188 149.438 68.9688 149.375 68.6562C149.062 68.4062 148.781 68.1875 148.531 68C148.281 67.75 148.094 67.4688 147.969 67.1562C147.031 66.9062 146.406 66.6875 146.094 66.5C145.844 66.25 145.469 66.1562 144.969 66.2188C144.719 66.0938 144.312 66.125 143.75 66.3125C143.188 66.5 142.812 66.625 142.625 66.6875C142.062 67 141.719 67.1875 141.594 67.25C141.531 67.3125 141.531 67.4688 141.594 67.7188C140.969 67.5938 140.656 67.6875 140.656 68C140.656 68.25 140.5 68.3438 140.188 68.2812C139.75 69.0312 139.562 69.5 139.625 69.6875C139.312 70.25 139.125 70.5625 139.062 70.625C139.062 70.6875 139 70.7812 138.875 70.9062C138.75 71.4062 138.656 71.7812 138.594 72.0312C138.594 72.2188 138.5 72.375 138.312 72.5C138.438 72.75 138.438 73.0938 138.312 73.5312C138.188 73.9062 138.188 74.25 138.312 74.5625C138.188 75.625 138.062 76.4688 137.938 77.0938C137.875 77.6562 137.906 78.25 138.031 78.875C138.219 79.25 138.312 79.5938 138.312 79.9062C138.562 80.4688 138.688 80.8438 138.688 81.0312C139 81.6562 139.188 81.9688 139.25 81.9688C139.312 81.9688 139.375 82 139.438 82.0625C139.562 82.4375 139.656 82.7188 139.719 82.9062C139.844 83.0312 139.969 83.1562 140.094 83.2812C140.594 83.8438 140.906 84.1562 141.031 84.2188C141.219 84.2812 141.375 84.375 141.5 84.5C141.562 84.6875 141.656 84.8438 141.781 84.9688C141.969 85.0312 142.094 85.1875 142.156 85.4375C142.781 85.75 143.125 85.9062 143.188 85.9062C143.812 86.2812 144.219 86.4688 144.406 86.4688C144.656 86.4688 144.875 86.5312 145.062 86.6562C145.375 86.4688 145.625 86.4688 145.812 86.6562C146 86.8438 146.281 86.875 146.656 86.75C147.219 86.6875 147.531 86.6875 147.594 86.75C147.719 86.8125 147.938 86.7812 148.25 86.6562C149.438 86.3438 150.281 86.0625 150.781 85.8125C150.906 85.75 151.031 85.6875 151.156 85.625C151.281 85.5625 151.5 85.5625 151.812 85.625C152.062 85.4375 152.406 85.25 152.844 85.0625C153.281 84.875 153.656 84.6875 153.969 84.5C154.531 84 154.812 83.75 154.812 83.75C155.188 83.125 155.438 82.75 155.562 82.625C156.062 82.1875 156.344 81.9688 156.406 81.9688C156.469 81.9688 156.531 81.9062 156.594 81.7812C156.906 81.2812 157.156 80.9688 157.344 80.8438C157.781 80.4062 158 80.0938 158 79.9062C158.062 79.7188 158.125 79.5625 158.188 79.4375C158.5 79 158.625 78.75 158.562 78.6875C158.562 78.625 158.562 78.5312 158.562 78.4062C158.812 78.3438 158.938 78.1875 158.938 77.9375C158.938 77.6875 159 77.4688 159.125 77.2812C159.25 77.0312 159.406 76.8125 159.594 76.625C159.844 76.4375 159.938 76.1875 159.875 75.875C160.125 75.75 160.25 75.5625 160.25 75.3125C160.25 75.0625 160.312 74.8438 160.438 74.6562C160.625 74.2188 160.719 73.9062 160.719 73.7188C160.781 73.4688 160.906 73.2812 161.094 73.1562C161.031 72.8438 161 72.5938 161 72.4062C161.062 72.2188 161.188 71.9375 161.375 71.5625C161.375 70.9375 161.375 70.5312 161.375 70.3438C161.375 70.0938 161.406 69.875 161.469 69.6875C161.469 69.1875 161.469 68.875 161.469 68.75C161.469 68.625 161.531 68.5 161.656 68.375C161.594 67.8125 161.594 67.3125 161.656 66.875C161.719 66.4375 161.75 65.9688 161.75 65.4688C161.75 65.1562 161.719 64.875 161.656 64.625C161.594 64.3125 161.625 64 161.75 63.6875C161.438 63.25 161.344 62.5938 161.469 61.7188C161.219 60.4688 161.094 59.5312 161.094 58.9062C161.156 58.2812 161.125 57.6562 161 57.0312C160.875 56.3438 160.781 55.9375 160.719 55.8125C160.656 55.625 160.625 55.4375 160.625 55.25C160.625 54.8125 160.594 54.5 160.531 54.3125C160.469 54.125 160.438 53.9688 160.438 53.8438L160.156 52.4375C160.219 51.4375 160.219 50.7188 160.156 50.2812C160.094 49.7812 159.969 49.2812 159.781 48.7812C159.719 48.2188 159.688 47.8438 159.688 47.6562C159.75 47.4688 159.688 47.2812 159.5 47.0938ZM171.312 22.1562C170.375 22.0312 169.688 22.0312 169.25 22.1562C168.875 22.2187 168.531 22.1875 168.219 22.0625C167.469 22.4375 167.031 22.6563 166.906 22.7188C166.781 22.7812 166.656 22.875 166.531 23C166.031 23.3125 165.75 23.4688 165.688 23.4688C165.625 23.4063 165.594 23.4063 165.594 23.4688C165.094 23.9688 164.781 24.3438 164.656 24.5938C164.531 24.7812 164.312 24.875 164 24.875C163.938 25.1875 163.781 25.4062 163.531 25.5312C163.344 25.6563 163.25 25.9062 163.25 26.2812C163.438 26.3437 163.625 26.375 163.812 26.375C164.062 26.375 164.281 26.4063 164.469 26.4688C165.156 26.2812 165.594 26.1562 165.781 26.0938C165.969 25.9687 166.156 25.875 166.344 25.8125C166.969 25.625 167.406 25.5312 167.656 25.5312C168.469 25.2187 168.906 25.0312 168.969 24.9688C169.719 24.5313 170.25 24.2812 170.562 24.2188C170.875 24.0937 171.188 23.9062 171.5 23.6562C172 22.9687 172.125 22.5937 171.875 22.5312C171.625 22.4688 171.438 22.3438 171.312 22.1562ZM193.812 63.0312C194.312 63.3438 194.562 63.5312 194.562 63.5938C194.625 63.5938 194.656 63.6875 194.656 63.875C194.906 64 195.125 64.2188 195.312 64.5312C195.562 64.8438 195.625 65.1562 195.5 65.4688C195.75 66.1562 195.812 66.625 195.688 66.875C195.625 67.125 195.656 67.3438 195.781 67.5312C195.844 68.3438 195.875 68.9688 195.875 69.4062C195.875 69.7812 195.906 70.1562 195.969 70.5312C195.906 71.5312 195.812 72.1875 195.688 72.5C195.562 72.8125 195.469 73.125 195.406 73.4375C195.344 73.8125 195.281 74.1875 195.219 74.5625C195.219 74.875 195.094 75.125 194.844 75.3125C194.844 75.875 194.719 76.25 194.469 76.4375C194.281 76.625 194.125 76.875 194 77.1875C193.75 77.3125 193.531 77.4375 193.344 77.5625C193.219 77.6875 193.094 77.8438 192.969 78.0312C192.531 78.0938 192.125 78.3125 191.75 78.6875C191.438 78.9375 191.031 79.125 190.531 79.25C190.094 79.375 189.719 79.5938 189.406 79.9062C188.906 79.9062 188.625 79.9688 188.562 80.0938C188.562 80.2188 188.5 80.3125 188.375 80.375C187.938 80.4375 187.469 80.5312 186.969 80.6562C186.469 80.7188 185.969 80.7188 185.469 80.6562C185.094 80.7812 184.812 80.8125 184.625 80.75C184.438 80.6875 184.25 80.6562 184.062 80.6562C183.5 80.5312 183.125 80.5 182.938 80.5625C182.75 80.5625 182.594 80.4688 182.469 80.2812C181.781 80.2188 181.281 80.0625 180.969 79.8125C180.656 79.5 180.219 79.3125 179.656 79.25C179.469 78.9375 179.219 78.7188 178.906 78.5938C178.656 78.4688 178.469 78.25 178.344 77.9375C177.844 77.5625 177.469 77.3438 177.219 77.2812C177.031 77.1562 176.938 76.9375 176.938 76.625C176.688 76.5625 176.5 76.4688 176.375 76.3438C176.312 76.1562 176.188 76 176 75.875C175.625 75.1875 175.469 74.8125 175.531 74.75C175.656 74.6875 175.656 74.625 175.531 74.5625C175.281 74 175.125 73.6562 175.062 73.5312C175 73.4062 174.906 73.2188 174.781 72.9688C174.594 72.5938 174.5 72.3438 174.5 72.2188C174.5 72.0312 174.438 71.875 174.312 71.75C174.375 71.4375 174.344 71.1875 174.219 71C174.094 70.75 174.156 70.5312 174.406 70.3438C174.219 69.4688 174.188 68.8125 174.312 68.375C174.438 67.875 174.438 67.4375 174.312 67.0625C174.5 66.625 174.594 66.3438 174.594 66.2188C174.656 66.0938 174.625 66.0312 174.5 66.0312C174.688 65.7188 174.781 65.4062 174.781 65.0938C174.781 64.7812 174.844 64.4688 174.969 64.1562C175.469 63.3438 175.75 62.6875 175.812 62.1875C176.125 62.1875 176.312 62.0938 176.375 61.9062C176.438 61.6562 176.594 61.4688 176.844 61.3438C177.219 60.7188 177.562 60.3438 177.875 60.2188C178.188 60.0312 178.438 59.7812 178.625 59.4688C179.188 59.0312 179.719 58.7188 180.219 58.5312C180.719 58.3438 181.156 58.0938 181.531 57.7812L182.75 57.3125C183.312 57.3125 183.719 57.3125 183.969 57.3125C184.281 57.3125 184.5 57.2188 184.625 57.0312C184.938 57.1562 185.312 57.25 185.75 57.3125C186.25 57.3125 186.625 57.25 186.875 57.125C187.375 57.3125 187.656 57.4062 187.719 57.4062C187.844 57.3438 187.969 57.3125 188.094 57.3125C188.656 57.6875 189.031 57.875 189.219 57.875C189.906 58.375 190.344 58.6875 190.531 58.8125C190.719 58.9375 190.938 59.0625 191.188 59.1875C191.5 60 191.969 60.4688 192.594 60.5938C192.719 61.0938 192.906 61.5 193.156 61.8125C193.469 62.125 193.688 62.5312 193.812 63.0312ZM182.188 77.4688C182.438 77.5938 182.719 77.7188 183.031 77.8438C183.344 77.9688 183.656 78.0312 183.969 78.0312C184.719 78.1562 185.125 78.1875 185.188 78.125C185.25 78.0625 185.312 78.0312 185.375 78.0312C185.875 78.0938 186.188 78.1562 186.312 78.2188C186.438 78.2812 186.531 78.2812 186.594 78.2188C187.281 78.0312 187.656 77.9688 187.719 78.0312C187.781 78.0312 187.875 78 188 77.9375C188.625 77.6875 189 77.5625 189.125 77.5625C189.312 77.5 189.469 77.5 189.594 77.5625C190.469 76.875 191.094 76.375 191.469 76.0625C191.906 75.8125 192.156 75.625 192.219 75.5C192.281 75.375 192.406 75.2812 192.594 75.2188C192.531 74.8438 192.562 74.5312 192.688 74.2812C192.812 74.0312 192.875 73.6875 192.875 73.25C193.125 72.8125 193.219 72.3438 193.156 71.8438C193.219 71.0938 193.25 70.7188 193.25 70.7188C193.25 69.7188 193.281 68.9688 193.344 68.4688C193.406 67.9062 193.406 67.375 193.344 66.875C193.281 66.625 193.188 66.4375 193.062 66.3125C193 66.125 193 65.9062 193.062 65.6562C192.625 65.0938 192.219 64.75 191.844 64.625L191.375 63.5938C190.875 62.9688 190.594 62.6562 190.531 62.6562C190.469 62.6562 190.375 62.5938 190.25 62.4688C189.875 62.0312 189.625 61.8125 189.5 61.8125C189.375 61.8125 189.25 61.75 189.125 61.625C189.062 61.375 188.938 61.1875 188.75 61.0625C188.625 60.9375 188.562 60.7188 188.562 60.4062C188.312 60.2812 188.062 60.125 187.812 59.9375C187.625 59.75 187.375 59.625 187.062 59.5625C186.562 59.625 186.219 59.6562 186.031 59.6562C185.906 59.5938 185.781 59.5625 185.656 59.5625C185.531 59.5625 185.344 59.5938 185.094 59.6562C184.906 59.6562 184.719 59.6562 184.531 59.6562C184.219 59.5938 183.969 59.5938 183.781 59.6562C183.656 59.7188 183.5 59.7812 183.312 59.8438C182.625 60.0938 182.188 60.25 182 60.3125C181.812 60.3125 181.656 60.3438 181.531 60.4062C180.781 60.9688 180.375 61.4062 180.312 61.7188C179.812 61.6562 179.469 61.75 179.281 62C179.156 62.25 178.938 62.4375 178.625 62.5625C178.625 62.875 178.531 63.0938 178.344 63.2188C178.219 63.2812 178.156 63.4688 178.156 63.7812C177.781 64.1562 177.562 64.4375 177.5 64.625C177.5 64.75 177.438 64.8438 177.312 64.9062C177.438 65.2188 177.406 65.5312 177.219 65.8438C177.031 66.0938 176.969 66.4062 177.031 66.7812C176.719 67.4062 176.594 67.75 176.656 67.8125C176.719 67.875 176.75 68 176.75 68.1875C176.75 68.9375 176.719 69.4375 176.656 69.6875C176.594 69.9375 176.594 70.1562 176.656 70.3438C176.844 71.0938 176.969 71.5 177.031 71.5625C177.344 72.3125 177.5 72.7812 177.5 72.9688C177.5 73.1562 177.562 73.3125 177.688 73.4375C178.25 74.0625 178.562 74.5 178.625 74.75C178.75 74.9375 178.906 75.0938 179.094 75.2188C179.719 75.6562 180.031 75.875 180.031 75.875C180.094 75.8125 180.156 75.8125 180.219 75.875C180.906 76.4375 181.312 76.9688 181.438 77.4688H182.188ZM220.531 86.375C220.844 87.125 220.969 87.5625 220.906 87.6875C220.906 87.8125 220.844 88.0312 220.719 88.3438C220.156 88.7188 219.844 88.8438 219.781 88.7188C219.781 88.6562 219.719 88.5938 219.594 88.5312C219.156 88.9688 218.906 89.2188 218.844 89.2812C218.844 89.3438 218.781 89.4062 218.656 89.4688C218.156 89.5938 217.656 89.5625 217.156 89.375C216.656 89.1875 216.156 89.0312 215.656 88.9062C215.406 88.7188 215.156 88.5312 214.906 88.3438C214.719 88.1562 214.469 87.9688 214.156 87.7812C213.844 87.3438 213.594 87.0312 213.406 86.8438C213.281 86.7188 213.125 86.5625 212.938 86.375C212.375 85.75 212.094 85.4062 212.094 85.3438C211.781 85.0938 211.562 84.9375 211.438 84.875C211.375 84.75 211.281 84.625 211.156 84.5C211.094 84.375 211 84.2188 210.875 84.0312C210.812 83.8438 210.719 83.6875 210.594 83.5625C210.406 83.375 210.219 83.0938 210.031 82.7188C209.844 82.3438 209.656 82 209.469 81.6875C209.406 81.5625 209.344 81.3438 209.281 81.0312C209.281 80.7188 209.25 80.4375 209.188 80.1875C209 79.4375 208.875 79 208.812 78.875C208.562 78.0625 208.438 77.5 208.438 77.1875C208.5 76.875 208.5 76.5625 208.438 76.25C208.438 75.75 208.406 75.4688 208.344 75.4062C208.281 75.2812 208.25 75.1562 208.25 75.0312C208.125 74.7188 208.062 74.4062 208.062 74.0938C208.062 73.7188 208 73.375 207.875 73.0625C207.938 72.5 207.969 72.125 207.969 71.9375C207.969 71.75 207.906 71.5938 207.781 71.4688C207.844 71.1562 207.844 70.9062 207.781 70.7188C207.719 70.5312 207.656 70.3125 207.594 70.0625C207.531 69.5625 207.5 69.2812 207.5 69.2188C207.562 69.1562 207.594 69.0938 207.594 69.0312C207.594 68.7812 207.562 68.4062 207.5 67.9062C207.5 67.3438 207.5 66.875 207.5 66.5C207.438 65.8125 207.438 65.4062 207.5 65.2812C207.625 65.1562 207.625 65 207.5 64.8125C207.688 64.125 207.719 63.7812 207.594 63.7812C207.594 63.3438 207.625 63.0625 207.688 62.9375C207.812 62.75 207.812 62.5938 207.688 62.4688C207.438 62.5312 207.25 62.6562 207.125 62.8438C207 62.9688 206.875 63.0938 206.75 63.2188C206.188 63.3438 205.875 63.4688 205.812 63.5938C205.75 63.6562 205.625 63.6875 205.438 63.6875C205.312 63.8125 205.188 63.9688 205.062 64.1562C205 64.2812 204.938 64.4375 204.875 64.625C204.188 64.75 203.812 64.875 203.75 65C203.125 65.25 202.656 65.4062 202.344 65.4688C202.031 65.5312 201.781 65.6562 201.594 65.8438C201.094 65.9062 200.75 66 200.562 66.125C200.438 66.1875 200.25 66.25 200 66.3125C199.625 66.5 199.375 66.5312 199.25 66.4062C199.188 66.2812 199 66.1875 198.688 66.125C198.312 65.1875 198.25 64.625 198.5 64.4375C198.688 64.25 198.844 64 198.969 63.6875C199.281 63.75 199.531 63.75 199.719 63.6875C199.969 63.625 200.25 63.5312 200.562 63.4062C201.312 63.1562 201.812 63.0312 202.062 63.0312C202.312 63.0312 202.594 62.9688 202.906 62.8438L204.125 62.1875C204.688 62 205.219 61.6562 205.719 61.1562C206.281 60.7812 206.594 60.5625 206.656 60.5C206.719 60.375 206.812 60.25 206.938 60.125C207.062 59.9375 207.188 59.8125 207.312 59.75C207.5 59.625 207.625 59.4375 207.688 59.1875C208.062 58.875 208.281 58.625 208.344 58.4375C208.469 58.1875 208.562 57.9375 208.625 57.6875C208.562 57.1875 208.531 56.8438 208.531 56.6562C208.594 56.4062 208.688 56.2188 208.812 56.0938C208.75 55.4062 208.781 54.9375 208.906 54.6875C209.031 54.375 209 54.0625 208.812 53.75L209.188 52.4375C209.5 51.8125 209.594 51.1875 209.469 50.5625C209.719 49.875 209.875 49.4062 209.938 49.1562C210 48.9062 210.062 48.6875 210.125 48.5C210.312 48.125 210.375 47.875 210.312 47.75C210.312 47.625 210.312 47.5 210.312 47.375C210.75 46.6875 210.938 46.2812 210.875 46.1562C210.875 45.9688 210.906 45.7812 210.969 45.5938C211.031 45.4688 211.125 45.3125 211.25 45.125C211.375 44.9375 211.406 44.75 211.344 44.5625C211.469 44.4375 211.562 44.2812 211.625 44.0938C211.75 43.9062 211.875 43.7188 212 43.5312C212.062 43.3438 212.062 43.1562 212 42.9688C211.938 42.7812 211.969 42.5938 212.094 42.4062C212.469 42.0312 212.656 41.7188 212.656 41.4688C212.719 41.2188 212.812 41.0312 212.938 40.9062C213.188 40.2188 213.344 39.8125 213.406 39.6875C213.656 39.125 213.906 38.6562 214.156 38.2812C214.281 37.9062 214.375 37.6875 214.438 37.625C214.5 37.5 214.5 37.3438 214.438 37.1562C215 36.7188 215.312 36.1562 215.375 35.4688C215.75 35.0938 216.031 34.8438 216.219 34.7188C216.406 34.5938 216.5 34.375 216.5 34.0625C217.125 33.5 217.562 33.125 217.812 32.9375C218.062 32.6875 218.344 32.4688 218.656 32.2812C218.844 32.4062 219.031 32.4062 219.219 32.2812C219.469 32.1562 219.656 32.0312 219.781 31.9062C219.906 31.9062 220.062 31.9375 220.25 32C220.438 32.0625 220.656 32.125 220.906 32.1875C221.844 32.3125 222.406 32.4688 222.594 32.6562C222.781 32.8438 223.031 33 223.344 33.125C223.531 33.875 223.688 34.3438 223.812 34.5312C223.938 34.6562 224 34.8125 224 35C223.938 35.5 223.906 35.7812 223.906 35.8438C223.969 35.9062 224 36 224 36.125C224 36.3125 223.969 36.5312 223.906 36.7812C223.844 36.9688 223.812 37.1562 223.812 37.3438C223.812 37.8438 223.75 38.2188 223.625 38.4688C223.562 38.6562 223.531 38.875 223.531 39.125C223.469 39.75 223.375 40.1875 223.25 40.4375C222.938 41.1875 222.781 41.5938 222.781 41.6562C222.844 41.6562 222.875 41.7188 222.875 41.8438C222.625 42.4062 222.438 42.7812 222.312 42.9688C222.188 43.7812 222.031 44.2812 221.844 44.4688C221.719 44.5938 221.625 44.8125 221.562 45.125C221.312 45.5 221.125 45.75 221 45.875C220.938 45.9375 220.844 46.0625 220.719 46.25C220.469 46.9375 220.094 47.75 219.594 48.6875C219.406 49 219.219 49.3125 219.031 49.625C218.844 49.875 218.719 50.1562 218.656 50.4688C218.344 50.8438 218.125 51.0625 218 51.125C217.938 51.1875 217.844 51.25 217.719 51.3125C217.531 51.625 217.438 51.875 217.438 52.0625C217.438 52.1875 217.406 52.3125 217.344 52.4375C216.906 52.75 216.656 52.9688 216.594 53.0938C216.531 53.1562 216.5 53.2812 216.5 53.4688C216.312 53.5938 216.156 53.7188 216.031 53.8438C215.906 53.9062 215.719 54 215.469 54.125C215.469 54.4375 215.344 54.6562 215.094 54.7812C214.906 54.8438 214.812 55.0312 214.812 55.3438C214.062 56.2812 213.5 56.8125 213.125 56.9375C213 57.1875 212.844 57.375 212.656 57.5C212.531 57.5625 212.469 57.75 212.469 58.0625C212.031 58.25 211.781 58.5312 211.719 58.9062C211.156 59.2812 210.875 59.625 210.875 59.9375C210.875 60.25 210.812 60.5938 210.688 60.9688C210.5 61.7188 210.406 62.1562 210.406 62.2812C210.469 62.3438 210.469 62.4375 210.406 62.5625C210.469 62.875 210.469 63.125 210.406 63.3125C210.344 63.4375 210.281 63.625 210.219 63.875C210.281 64.375 210.281 64.6562 210.219 64.7188C210.219 64.7188 210.219 64.7812 210.219 64.9062C210.281 65.3438 210.281 65.625 210.219 65.75C210.219 65.8125 210.219 65.9062 210.219 66.0312C210.219 66.3438 210.219 66.6562 210.219 66.9688C210.281 67.2812 210.312 67.6562 210.312 68.0938C210.312 68.3438 210.312 68.5938 210.312 68.8438C210.312 69.0312 210.375 69.25 210.5 69.5C210.375 69.8125 210.375 70.125 210.5 70.4375C210.625 70.75 210.688 71.0625 210.688 71.375C210.812 71.9375 210.844 72.4688 210.781 72.9688C210.719 73.4688 210.812 73.9062 211.062 74.2812C210.875 74.9062 211 75.5 211.438 76.0625C211.438 76.6875 211.438 77.125 211.438 77.375C211.438 77.5625 211.5 77.8438 211.625 78.2188C211.812 78.6562 211.875 78.9688 211.812 79.1562C211.812 79.3438 211.844 79.5 211.906 79.625C211.969 79.875 212.031 80.0938 212.094 80.2812C212.156 80.4062 212.188 80.5625 212.188 80.75C212.438 80.9375 212.625 81.1875 212.75 81.5C212.938 81.8125 213.156 82.0938 213.406 82.3438C213.781 82.7812 214 83.0312 214.062 83.0938C214.125 83.1562 214.219 83.2188 214.344 83.2812C214.469 83.5312 214.562 83.7188 214.625 83.8438C214.75 83.9688 214.875 84.1562 215 84.4062C215.125 84.5312 215.25 84.6562 215.375 84.7812C215.562 84.9062 215.656 85.0625 215.656 85.25C215.969 85.3125 216.188 85.4375 216.312 85.625C216.438 85.75 216.562 85.9062 216.688 86.0938C217.062 86.0938 217.281 86.125 217.344 86.1875C217.469 86.25 217.594 86.3438 217.719 86.4688C218.219 86.4062 218.531 86.3125 218.656 86.1875C218.844 86.125 219.188 86.125 219.688 86.1875L220.531 86.375ZM220.25 34.3438C219.625 34.6562 219.312 34.9062 219.312 35.0938C219.375 35.2188 219.344 35.25 219.219 35.1875C218.844 35.3125 218.531 35.5625 218.281 35.9375C218.094 36.25 217.938 36.5938 217.812 36.9688C217.438 37.4688 217.094 37.875 216.781 38.1875C216.719 38.625 216.594 38.9688 216.406 39.2188C216.219 39.4688 216.094 39.8125 216.031 40.25C215.781 40.8125 215.594 41.1875 215.469 41.375C215.344 41.5 215.219 41.6875 215.094 41.9375C214.844 42.5 214.688 42.9375 214.625 43.25C214.562 43.5625 214.5 43.9375 214.438 44.375C214.125 44.6875 213.906 45.125 213.781 45.6875C213.656 46.1875 213.531 46.7188 213.406 47.2812C213.094 47.4062 212.906 47.6562 212.844 48.0312C212.844 48.3438 212.812 48.6562 212.75 48.9688C212.562 49.2188 212.438 49.4688 212.375 49.7188C212.375 49.9688 212.312 50.1562 212.188 50.2812C212.312 50.5938 212.312 50.875 212.188 51.125C212.062 51.375 211.969 51.5938 211.906 51.7812C211.781 52.4062 211.719 52.7812 211.719 52.9062C211.656 53.4688 211.562 53.7812 211.438 53.8438C211.375 53.9062 211.375 54 211.438 54.125C211.5 54.25 211.531 54.4375 211.531 54.6875C211.594 54.875 211.688 55.0312 211.812 55.1562C212.438 54.5938 212.812 54.25 212.938 54.125C213.062 53.9375 213.156 53.75 213.219 53.5625C213.781 53.0625 214.156 52.75 214.344 52.625C214.594 52.4375 214.75 52.1562 214.812 51.7812C215.188 51.4062 215.406 51.1562 215.469 51.0312C215.531 50.8438 215.594 50.6562 215.656 50.4688C216.156 49.9688 216.406 49.7188 216.406 49.7188C216.469 49.6562 216.531 49.5625 216.594 49.4375C217.094 48.8125 217.344 48.4688 217.344 48.4062C217.344 48.3438 217.375 48.2812 217.438 48.2188C217.875 47.5312 218.094 47.1562 218.094 47.0938C218.094 47.0312 218.156 46.9688 218.281 46.9062C218.406 46.2188 218.688 45.6875 219.125 45.3125C219.125 45 219.156 44.7812 219.219 44.6562C219.344 44.4688 219.469 44.3125 219.594 44.1875C219.906 43.5 220.094 42.9375 220.156 42.5C220.281 42 220.469 41.5938 220.719 41.2812C220.844 40.8438 220.906 40.5312 220.906 40.3438C220.906 40.1562 220.938 39.9375 221 39.6875C221.312 39.25 221.438 38.9062 221.375 38.6562C221.375 38.3438 221.406 38.0312 221.469 37.7188C221.719 36.8438 221.844 36.25 221.844 35.9375C221.781 35.75 221.688 35.5625 221.562 35.375C221.5 35.1875 221.5 34.9688 221.562 34.7188C221.438 34.5938 221.25 34.5312 221 34.5312C220.75 34.4688 220.5 34.4062 220.25 34.3438ZM226.344 44.6562C226.594 44.7812 226.875 44.8125 227.188 44.75C227.5 44.625 227.75 44.6562 227.938 44.8438C228.25 44.7812 228.469 44.75 228.594 44.75C228.781 44.6875 229.031 44.7188 229.344 44.8438L230.281 45.6875L230.656 46.7188C230.656 47.2812 230.594 47.625 230.469 47.75C230.469 48.1875 230.312 48.5 230 48.6875C229.812 49.125 229.688 49.375 229.625 49.4375C229.562 49.5 229.562 49.625 229.625 49.8125C228.875 50.125 228.281 50.2812 227.844 50.2812C227.656 50.2812 227.469 50.25 227.281 50.1875C227.094 50.0625 226.875 50.0312 226.625 50.0938C226.375 49.8438 226.062 49.625 225.688 49.4375C225.625 49.125 225.469 48.8438 225.219 48.5938C225.031 48.3438 225.031 48.0625 225.219 47.75C225.031 47.0625 224.938 46.6875 224.938 46.625C225 46.5625 225.031 46.375 225.031 46.0625C225.156 45.9375 225.281 45.8438 225.406 45.7812C225.531 45.6562 225.594 45.4375 225.594 45.125L226.344 44.6562ZM234.406 88.0625C234.656 87.625 234.844 87.375 234.969 87.3125C235.094 87.25 235.219 87.1875 235.344 87.125C235.469 86.5625 235.625 86.1875 235.812 86C235.312 85.6875 235.062 85.5938 235.062 85.7188C235.125 85.8438 235.031 85.875 234.781 85.8125C234.469 85.8125 234.25 85.75 234.125 85.625C234 85.4375 233.781 85.3438 233.469 85.3438C233.344 85.0312 233.312 84.75 233.375 84.5C233.438 84.1875 233.469 83.8125 233.469 83.375C234.156 83 234.531 82.7812 234.594 82.7188C234.656 82.6562 234.75 82.5938 234.875 82.5312C235.625 82.4688 236.062 82.5 236.188 82.625C236.375 82.75 236.531 82.75 236.656 82.625C236.844 83 237.094 83.2812 237.406 83.4688C237.719 83.6562 238.031 83.9062 238.344 84.2188C238.469 84.9062 238.5 85.2812 238.438 85.3438C238.438 85.4062 238.438 85.5 238.438 85.625C238.562 86.25 238.562 86.75 238.438 87.125C238.25 87.875 238.062 88.3125 237.875 88.4375C237.688 88.625 237.656 88.8438 237.781 89.0938C237.469 89.2188 237.219 89.3438 237.031 89.4688C236.844 89.5938 236.688 89.8125 236.562 90.125C236.25 90.1875 235.938 90.2812 235.625 90.4062C235.312 90.5938 235 90.75 234.688 90.875H233.188C233 90.875 232.812 90.875 232.625 90.875C232.438 90.875 232.281 90.8438 232.156 90.7812C231.906 90.6562 231.656 90.5 231.406 90.3125C231.156 90.1875 230.938 90.0625 230.75 89.9375C230.562 89.75 230.375 89.5625 230.188 89.375C230.062 89.25 229.875 89.125 229.625 89C229.562 88.75 229.438 88.5312 229.25 88.3438C229.125 88.1562 229 87.9375 228.875 87.6875C228.75 87.5 228.625 87.2812 228.5 87.0312C228.375 86.8438 228.25 86.6875 228.125 86.5625C228.125 86.25 228.062 85.9688 227.938 85.7188C227.812 85.4062 227.719 85.1562 227.656 84.9688C227.594 84.6562 227.562 84.375 227.562 84.125C227.562 83.8125 227.562 83.5 227.562 83.1875C227.5 83 227.438 82.8125 227.375 82.625C227.312 82.4375 227.344 82.25 227.469 82.0625C227.219 81.75 227.094 81.5312 227.094 81.4062C227.156 81.2188 227.094 81.0625 226.906 80.9375C226.906 80.125 227.031 79.4688 227.281 78.9688C227.281 78.8438 227.281 78.6875 227.281 78.5C227.344 78.25 227.375 78.0625 227.375 77.9375C227.375 77.6875 227.312 77.4688 227.188 77.2812C227.062 77.0938 227.031 76.9062 227.094 76.7188C227.094 76.4688 227.156 76.25 227.281 76.0625C227.406 75.8125 227.531 75.5938 227.656 75.4062C227.594 74.4688 227.469 73.7188 227.281 73.1562C227.156 72.5938 227.281 72.0312 227.656 71.4688C227.531 70.6562 227.625 70.0625 227.938 69.6875C227.75 68.9375 227.656 68.5312 227.656 68.4688C227.531 68.0312 227.531 67.5625 227.656 67.0625C227.656 66.875 227.688 66.6875 227.75 66.5C227.812 66.3125 227.875 66.125 227.938 65.9375C227.938 65.6875 227.906 65.4688 227.844 65.2812C227.844 65.0312 227.906 64.8438 228.031 64.7188C227.844 64.2188 227.781 63.5938 227.844 62.8438C227.969 62.0938 227.969 61.4688 227.844 60.9688C227.781 60.7812 227.688 60.625 227.562 60.5C227.438 60.375 227.375 60.1562 227.375 59.8438C227.062 59.7812 226.844 59.7188 226.719 59.6562C226.594 59.5938 226.406 59.5312 226.156 59.4688C225.656 59.7188 225.312 59.9375 225.125 60.125C225 60.3125 224.875 60.5 224.75 60.6875C224.062 60.9375 223.594 61.0312 223.344 60.9688C223.094 60.8438 222.875 60.7188 222.688 60.5938C222.562 60.2188 222.531 59.9375 222.594 59.75C222.656 59.5 222.75 59.25 222.875 59C223.188 58.875 223.438 58.75 223.625 58.625C223.875 58.5 224.031 58.2812 224.094 57.9688C224.344 57.8438 224.562 57.7188 224.75 57.5938C225 57.4688 225.188 57.3125 225.312 57.125C225.875 57.3125 226.406 57.3125 226.906 57.125C227.469 56.9375 227.906 57.0625 228.219 57.5C228.719 57.625 229 57.75 229.062 57.875C229.125 57.9375 229.219 57.9688 229.344 57.9688C229.469 58.3438 229.688 58.6562 230 58.9062C230.312 60.0312 230.375 60.6875 230.188 60.875C230.25 61.5 230.344 61.8438 230.469 61.9062C230.594 61.9688 230.625 62.1562 230.562 62.4688C230.812 63.2188 230.875 63.625 230.75 63.6875C230.625 63.75 230.625 63.9062 230.75 64.1562C230.438 64.6562 230.344 64.9375 230.469 65C230.594 65 230.625 65.0625 230.562 65.1875C230.438 65.75 230.5 66.3438 230.75 66.9688C230.625 67.2812 230.562 67.7188 230.562 68.2812C230.562 68.7812 230.469 69.25 230.281 69.6875C230.344 70.4375 230.281 70.8438 230.094 70.9062C230.219 71.6562 230.25 72.375 230.188 73.0625C230.125 73.75 230.219 74.4375 230.469 75.125C230.344 75.25 230.281 75.625 230.281 76.25C230.281 76.5625 230.25 76.875 230.188 77.1875C230.125 77.4375 230.094 77.7188 230.094 78.0312C230.094 78.6562 230.094 79.0312 230.094 79.1562C230.156 79.2812 230.125 79.4062 230 79.5312C230.188 80.0938 230.188 80.5312 230 80.8438C230.188 81.2188 230.281 81.6562 230.281 82.1562C230.281 82.5938 230.312 83 230.375 83.375C230.562 83.875 230.656 84.2812 230.656 84.5938C230.969 85.4062 231.219 85.875 231.406 86C231.594 86.1875 231.719 86.4375 231.781 86.75C231.906 86.875 232.031 86.9688 232.156 87.0312C232.281 87.1562 232.469 87.25 232.719 87.3125C232.844 87.4375 232.969 87.5625 233.094 87.6875C233.219 87.8125 233.344 87.9375 233.469 88.0625H234.406ZM259.438 63.0312C259.938 63.3438 260.188 63.5312 260.188 63.5938C260.25 63.5938 260.281 63.6875 260.281 63.875C260.531 64 260.75 64.2188 260.938 64.5312C261.188 64.8438 261.25 65.1562 261.125 65.4688C261.375 66.1562 261.438 66.625 261.312 66.875C261.25 67.125 261.281 67.3438 261.406 67.5312C261.469 68.3438 261.5 68.9688 261.5 69.4062C261.5 69.7812 261.531 70.1562 261.594 70.5312C261.531 71.5312 261.438 72.1875 261.312 72.5C261.188 72.8125 261.094 73.125 261.031 73.4375C260.969 73.8125 260.906 74.1875 260.844 74.5625C260.844 74.875 260.719 75.125 260.469 75.3125C260.469 75.875 260.344 76.25 260.094 76.4375C259.906 76.625 259.75 76.875 259.625 77.1875C259.375 77.3125 259.156 77.4375 258.969 77.5625C258.844 77.6875 258.719 77.8438 258.594 78.0312C258.156 78.0938 257.75 78.3125 257.375 78.6875C257.062 78.9375 256.656 79.125 256.156 79.25C255.719 79.375 255.344 79.5938 255.031 79.9062C254.531 79.9062 254.25 79.9688 254.188 80.0938C254.188 80.2188 254.125 80.3125 254 80.375C253.562 80.4375 253.094 80.5312 252.594 80.6562C252.094 80.7188 251.594 80.7188 251.094 80.6562C250.719 80.7812 250.438 80.8125 250.25 80.75C250.062 80.6875 249.875 80.6562 249.688 80.6562C249.125 80.5312 248.75 80.5 248.562 80.5625C248.375 80.5625 248.219 80.4688 248.094 80.2812C247.406 80.2188 246.906 80.0625 246.594 79.8125C246.281 79.5 245.844 79.3125 245.281 79.25C245.094 78.9375 244.844 78.7188 244.531 78.5938C244.281 78.4688 244.094 78.25 243.969 77.9375C243.469 77.5625 243.094 77.3438 242.844 77.2812C242.656 77.1562 242.562 76.9375 242.562 76.625C242.312 76.5625 242.125 76.4688 242 76.3438C241.938 76.1562 241.812 76 241.625 75.875C241.25 75.1875 241.094 74.8125 241.156 74.75C241.281 74.6875 241.281 74.625 241.156 74.5625C240.906 74 240.75 73.6562 240.688 73.5312C240.625 73.4062 240.531 73.2188 240.406 72.9688C240.219 72.5938 240.125 72.3438 240.125 72.2188C240.125 72.0312 240.062 71.875 239.938 71.75C240 71.4375 239.969 71.1875 239.844 71C239.719 70.75 239.781 70.5312 240.031 70.3438C239.844 69.4688 239.812 68.8125 239.938 68.375C240.062 67.875 240.062 67.4375 239.938 67.0625C240.125 66.625 240.219 66.3438 240.219 66.2188C240.281 66.0938 240.25 66.0312 240.125 66.0312C240.312 65.7188 240.406 65.4062 240.406 65.0938C240.406 64.7812 240.469 64.4688 240.594 64.1562C241.094 63.3438 241.375 62.6875 241.438 62.1875C241.75 62.1875 241.938 62.0938 242 61.9062C242.062 61.6562 242.219 61.4688 242.469 61.3438C242.844 60.7188 243.188 60.3438 243.5 60.2188C243.812 60.0312 244.062 59.7812 244.25 59.4688C244.812 59.0312 245.344 58.7188 245.844 58.5312C246.344 58.3438 246.781 58.0938 247.156 57.7812L248.375 57.3125C248.938 57.3125 249.344 57.3125 249.594 57.3125C249.906 57.3125 250.125 57.2188 250.25 57.0312C250.562 57.1562 250.938 57.25 251.375 57.3125C251.875 57.3125 252.25 57.25 252.5 57.125C253 57.3125 253.281 57.4062 253.344 57.4062C253.469 57.3438 253.594 57.3125 253.719 57.3125C254.281 57.6875 254.656 57.875 254.844 57.875C255.531 58.375 255.969 58.6875 256.156 58.8125C256.344 58.9375 256.562 59.0625 256.812 59.1875C257.125 60 257.594 60.4688 258.219 60.5938C258.344 61.0938 258.531 61.5 258.781 61.8125C259.094 62.125 259.312 62.5312 259.438 63.0312ZM247.812 77.4688C248.062 77.5938 248.344 77.7188 248.656 77.8438C248.969 77.9688 249.281 78.0312 249.594 78.0312C250.344 78.1562 250.75 78.1875 250.812 78.125C250.875 78.0625 250.938 78.0312 251 78.0312C251.5 78.0938 251.812 78.1562 251.938 78.2188C252.062 78.2812 252.156 78.2812 252.219 78.2188C252.906 78.0312 253.281 77.9688 253.344 78.0312C253.406 78.0312 253.5 78 253.625 77.9375C254.25 77.6875 254.625 77.5625 254.75 77.5625C254.938 77.5 255.094 77.5 255.219 77.5625C256.094 76.875 256.719 76.375 257.094 76.0625C257.531 75.8125 257.781 75.625 257.844 75.5C257.906 75.375 258.031 75.2812 258.219 75.2188C258.156 74.8438 258.188 74.5312 258.312 74.2812C258.438 74.0312 258.5 73.6875 258.5 73.25C258.75 72.8125 258.844 72.3438 258.781 71.8438C258.844 71.0938 258.875 70.7188 258.875 70.7188C258.875 69.7188 258.906 68.9688 258.969 68.4688C259.031 67.9062 259.031 67.375 258.969 66.875C258.906 66.625 258.812 66.4375 258.688 66.3125C258.625 66.125 258.625 65.9062 258.688 65.6562C258.25 65.0938 257.844 64.75 257.469 64.625L257 63.5938C256.5 62.9688 256.219 62.6562 256.156 62.6562C256.094 62.6562 256 62.5938 255.875 62.4688C255.5 62.0312 255.25 61.8125 255.125 61.8125C255 61.8125 254.875 61.75 254.75 61.625C254.688 61.375 254.562 61.1875 254.375 61.0625C254.25 60.9375 254.188 60.7188 254.188 60.4062C253.938 60.2812 253.688 60.125 253.438 59.9375C253.25 59.75 253 59.625 252.688 59.5625C252.188 59.625 251.844 59.6562 251.656 59.6562C251.531 59.5938 251.406 59.5625 251.281 59.5625C251.156 59.5625 250.969 59.5938 250.719 59.6562C250.531 59.6562 250.344 59.6562 250.156 59.6562C249.844 59.5938 249.594 59.5938 249.406 59.6562C249.281 59.7188 249.125 59.7812 248.938 59.8438C248.25 60.0938 247.812 60.25 247.625 60.3125C247.438 60.3125 247.281 60.3438 247.156 60.4062C246.406 60.9688 246 61.4062 245.938 61.7188C245.438 61.6562 245.094 61.75 244.906 62C244.781 62.25 244.562 62.4375 244.25 62.5625C244.25 62.875 244.156 63.0938 243.969 63.2188C243.844 63.2812 243.781 63.4688 243.781 63.7812C243.406 64.1562 243.188 64.4375 243.125 64.625C243.125 64.75 243.062 64.8438 242.938 64.9062C243.062 65.2188 243.031 65.5312 242.844 65.8438C242.656 66.0938 242.594 66.4062 242.656 66.7812C242.344 67.4062 242.219 67.75 242.281 67.8125C242.344 67.875 242.375 68 242.375 68.1875C242.375 68.9375 242.344 69.4375 242.281 69.6875C242.219 69.9375 242.219 70.1562 242.281 70.3438C242.469 71.0938 242.594 71.5 242.656 71.5625C242.969 72.3125 243.125 72.7812 243.125 72.9688C243.125 73.1562 243.188 73.3125 243.312 73.4375C243.875 74.0625 244.188 74.5 244.25 74.75C244.375 74.9375 244.531 75.0938 244.719 75.2188C245.344 75.6562 245.656 75.875 245.656 75.875C245.719 75.8125 245.781 75.8125 245.844 75.875C246.531 76.4375 246.938 76.9688 247.062 77.4688H247.812Z" fill="white"/>
<path d="M209.099 19V4.45454H217.821V6.01704H210.861V10.9318H217.167V12.4943H210.861V19H209.099ZM220.61 19V8.09091H222.286V19H220.61ZM221.463 6.27273C221.136 6.27273 220.854 6.16146 220.617 5.93892C220.385 5.71638 220.269 5.44886 220.269 5.13636C220.269 4.82386 220.385 4.55634 220.617 4.33381C220.854 4.11127 221.136 4 221.463 4C221.789 4 222.069 4.11127 222.301 4.33381C222.537 4.55634 222.656 4.82386 222.656 5.13636C222.656 5.44886 222.537 5.71638 222.301 5.93892C222.069 6.16146 221.789 6.27273 221.463 6.27273ZM229.76 23.3182C228.95 23.3182 228.254 23.214 227.672 23.0057C227.089 22.8021 226.604 22.5322 226.216 22.196C225.832 21.8646 225.527 21.5095 225.3 21.1307L226.635 20.1932C226.786 20.392 226.978 20.6193 227.21 20.875C227.442 21.1354 227.759 21.3603 228.162 21.5497C228.569 21.7438 229.102 21.8409 229.76 21.8409C230.64 21.8409 231.367 21.6278 231.94 21.2017C232.513 20.7756 232.8 20.108 232.8 19.1989V16.983H232.657C232.534 17.1818 232.359 17.428 232.132 17.7216C231.909 18.0104 231.587 18.2685 231.166 18.4957C230.749 18.7183 230.186 18.8295 229.476 18.8295C228.595 18.8295 227.804 18.6212 227.104 18.2045C226.407 17.7879 225.856 17.1818 225.449 16.3864C225.046 15.5909 224.845 14.625 224.845 13.4886C224.845 12.3712 225.041 11.3982 225.434 10.5696C225.827 9.73627 226.374 9.09233 227.075 8.63778C227.776 8.1785 228.586 7.94886 229.504 7.94886C230.214 7.94886 230.778 8.06723 231.194 8.30398C231.616 8.53598 231.938 8.80114 232.16 9.09943C232.388 9.39299 232.563 9.63447 232.686 9.82386H232.856V8.09091H234.476V19.3125C234.476 20.25 234.263 21.0123 233.836 21.5994C233.415 22.1913 232.847 22.6245 232.132 22.8991C231.422 23.1785 230.631 23.3182 229.76 23.3182ZM229.703 17.3239C230.375 17.3239 230.943 17.17 231.407 16.8622C231.872 16.5544 232.224 16.1117 232.466 15.5341C232.707 14.9564 232.828 14.2652 232.828 13.4602C232.828 12.6742 232.71 11.9806 232.473 11.3793C232.236 10.7779 231.886 10.3068 231.422 9.96591C230.958 9.625 230.385 9.45454 229.703 9.45454C228.993 9.45454 228.401 9.63447 227.927 9.99432C227.459 10.3542 227.106 10.8371 226.869 11.4432C226.637 12.0492 226.521 12.7216 226.521 13.4602C226.521 14.2178 226.639 14.8878 226.876 15.4702C227.118 16.0478 227.473 16.5024 227.942 16.8338C228.415 17.1605 229.002 17.3239 229.703 17.3239ZM237.544 19V8.09091H239.163V9.79545H239.305C239.532 9.21307 239.899 8.76089 240.406 8.43892C240.913 8.11222 241.521 7.94886 242.231 7.94886C242.951 7.94886 243.55 8.11222 244.028 8.43892C244.511 8.76089 244.888 9.21307 245.157 9.79545H245.271C245.55 9.23201 245.97 8.78456 246.528 8.45312C247.087 8.11695 247.757 7.94886 248.538 7.94886C249.514 7.94886 250.311 8.25426 250.932 8.86506C251.552 9.47112 251.862 10.4157 251.862 11.6989V19H250.186V11.6989C250.186 10.8939 249.966 10.3187 249.525 9.97301C249.085 9.62737 248.567 9.45454 247.97 9.45454C247.203 9.45454 246.609 9.68655 246.187 10.1506C245.766 10.6098 245.555 11.1922 245.555 11.8977V19H243.851V11.5284C243.851 10.9081 243.649 10.4086 243.247 10.0298C242.845 9.64631 242.326 9.45454 241.692 9.45454C241.256 9.45454 240.849 9.57055 240.47 9.80256C240.096 10.0346 239.793 10.3565 239.561 10.7685C239.334 11.1757 239.22 11.6468 239.22 12.1818V19H237.544ZM258.137 19.2557C257.446 19.2557 256.818 19.1255 256.255 18.8651C255.691 18.5999 255.244 18.2187 254.912 17.7216C254.581 17.2197 254.415 16.6136 254.415 15.9034C254.415 15.2784 254.538 14.7718 254.785 14.3835C255.031 13.9905 255.36 13.6828 255.772 13.4602C256.184 13.2377 256.638 13.072 257.135 12.9631C257.637 12.8494 258.142 12.7595 258.648 12.6932C259.311 12.608 259.849 12.544 260.26 12.5014C260.677 12.4541 260.98 12.3759 261.17 12.267C261.364 12.1581 261.461 11.9687 261.461 11.6989V11.642C261.461 10.9413 261.269 10.3968 260.885 10.0085C260.507 9.62026 259.931 9.42614 259.16 9.42614C258.359 9.42614 257.732 9.60133 257.278 9.9517C256.823 10.3021 256.503 10.6761 256.319 11.0739L254.728 10.5057C255.012 9.8428 255.391 9.3267 255.864 8.95739C256.342 8.58333 256.863 8.32292 257.427 8.17614C257.995 8.02462 258.554 7.94886 259.103 7.94886C259.453 7.94886 259.856 7.99148 260.31 8.0767C260.769 8.1572 261.212 8.32528 261.638 8.58096C262.069 8.83665 262.427 9.22254 262.711 9.73864C262.995 10.2547 263.137 10.946 263.137 11.8125V19H261.461V17.5227H261.376C261.262 17.7595 261.072 18.0128 260.807 18.2827C260.542 18.5526 260.189 18.7822 259.749 18.9716C259.309 19.161 258.771 19.2557 258.137 19.2557ZM258.393 17.75C259.055 17.75 259.614 17.6198 260.069 17.3594C260.528 17.099 260.874 16.7628 261.106 16.3509C261.342 15.9389 261.461 15.5057 261.461 15.0511V13.517C261.39 13.6023 261.233 13.6804 260.992 13.7514C260.755 13.8177 260.481 13.8769 260.168 13.929C259.86 13.9763 259.56 14.0189 259.266 14.0568C258.977 14.09 258.743 14.1184 258.563 14.142C258.127 14.1989 257.72 14.2912 257.341 14.419C256.967 14.5421 256.664 14.7292 256.432 14.9801C256.205 15.2263 256.091 15.5625 256.091 15.9886C256.091 16.571 256.307 17.0114 256.738 17.3097C257.173 17.6032 257.725 17.75 258.393 17.75Z" fill="#F9A6A3"/>
</svg>
