<svg width="231" height="113" viewBox="0 0 231 113" fill="none" xmlns="http://www.w3.org/2000/svg">
<path d="M107.162 108V93.4545H108.923V99.9318H116.679V93.4545H118.44V108H116.679V101.494H108.923V108H107.162ZM126.483 97.0909V98.5114H120.83V97.0909H126.483ZM122.478 94.4773H124.154V104.875C124.154 105.348 124.223 105.704 124.36 105.94C124.502 106.172 124.682 106.329 124.9 106.409C125.122 106.485 125.357 106.523 125.603 106.523C125.787 106.523 125.939 106.513 126.057 106.494C126.176 106.471 126.27 106.452 126.341 106.437L126.682 107.943C126.569 107.986 126.41 108.028 126.206 108.071C126.003 108.118 125.745 108.142 125.432 108.142C124.959 108.142 124.495 108.04 124.04 107.837C123.59 107.633 123.216 107.323 122.918 106.906C122.625 106.49 122.478 105.964 122.478 105.33V94.4773ZM129.005 108V97.0909H130.624V98.7955H130.766C130.993 98.2131 131.36 97.7609 131.867 97.4389C132.374 97.1122 132.982 96.9489 133.692 96.9489C134.412 96.9489 135.011 97.1122 135.489 97.4389C135.972 97.7609 136.349 98.2131 136.618 98.7955H136.732C137.011 98.232 137.43 97.7846 137.989 97.4531C138.548 97.117 139.218 96.9489 139.999 96.9489C140.974 96.9489 141.772 97.2543 142.393 97.8651C143.013 98.4711 143.323 99.4157 143.323 100.699V108H141.647V100.699C141.647 99.8939 141.427 99.3187 140.986 98.973C140.546 98.6274 140.028 98.4545 139.431 98.4545C138.664 98.4545 138.07 98.6866 137.648 99.1506C137.227 99.6098 137.016 100.192 137.016 100.898V108H135.312V100.528C135.312 99.9081 135.11 99.4086 134.708 99.0298C134.305 98.6463 133.787 98.4545 133.153 98.4545C132.717 98.4545 132.31 98.5705 131.931 98.8026C131.557 99.0346 131.254 99.3565 131.022 99.7685C130.795 100.176 130.681 100.647 130.681 101.182V108H129.005ZM148.064 93.4545V108H146.388V93.4545H148.064Z" fill="#F9A6A3"/>
<path d="M17.0434 63.27C16.9234 63.27 16.7734 63.27 16.5934 63.27C16.4134 63.21 16.3234 63.09 16.3234 62.91C16.3234 62.49 16.5634 62.16 17.0434 61.92C17.5834 61.62 18.0034 61.44 18.3034 61.38L20.1934 61.11C22.0534 60.87 23.9434 60.45 25.8634 59.85C27.0634 59.55 28.5634 59.1 30.3634 58.5C32.2234 57.9 34.1434 57.15 36.1234 56.25C38.1634 55.35 40.0534 54.33 41.7934 53.19C43.5934 52.05 45.0334 50.82 46.1134 49.5C47.2534 48.12 47.8234 46.68 47.8234 45.18C47.8234 43.62 47.1934 42.45 45.9334 41.67C44.6734 40.89 43.2034 40.38 41.5234 40.14C39.9034 39.9 38.5234 39.78 37.3834 39.78C33.6034 39.78 29.5534 40.32 25.2334 41.4C20.9734 42.48 17.0134 43.56 13.3534 44.64C12.9334 44.82 12.4534 44.91 11.9134 44.91C11.2534 44.91 10.7134 44.7 10.2934 44.28C9.9334 43.8 9.7534 43.23 9.7534 42.57C9.7534 41.07 10.3834 40.05 11.6434 39.51C12.1234 39.33 12.5734 39.18 12.9934 39.06C13.4734 38.94 13.9234 38.85 14.3434 38.79C17.8834 38.07 21.4834 37.41 25.1434 36.81C28.8034 36.15 32.4634 35.82 36.1234 35.82C37.7434 35.82 39.4534 35.97 41.2534 36.27C43.0534 36.51 44.7034 36.99 46.2034 37.71C47.7634 38.43 49.0234 39.45 49.9834 40.77C51.0034 42.03 51.5134 43.68 51.5134 45.72C51.5134 47.76 50.7634 49.62 49.2634 51.3C47.8234 52.92 45.9934 54.33 43.7734 55.53C41.5534 56.73 39.3034 57.72 37.0234 58.5C34.7434 59.28 32.7934 59.88 31.1734 60.3C28.9534 60.84 26.6434 61.44 24.2434 62.1C21.8434 62.76 19.5334 63.15 17.3134 63.27H17.0434ZM2.3734 82.08C2.0734 82.08 1.9234 81.9 1.9234 81.54C1.9234 81.3 1.9534 81.15 2.0134 81.09C2.4934 79.47 3.1234 77.91 3.9034 76.41C4.7434 74.85 5.5534 73.35 6.3334 71.91C6.6334 71.37 7.2034 70.38 8.0434 68.94C8.9434 67.44 9.9934 65.7 11.1934 63.72C12.3934 61.68 13.6534 59.61 14.9734 57.51C16.3534 55.35 17.6434 53.34 18.8434 51.48C20.0434 49.62 21.0634 48.12 21.9034 46.98C22.8034 45.84 23.3734 45.27 23.6134 45.27C23.9134 45.27 24.3934 45.39 25.0534 45.63C25.7734 45.81 26.4634 46.05 27.1234 46.35C27.7834 46.59 28.2034 46.83 28.3834 47.07C25.9234 49.83 23.4034 52.62 20.8234 55.44C18.3034 58.26 15.9634 61.17 13.8034 64.17C11.9434 66.93 10.1734 69.75 8.4934 72.63C6.8734 75.51 5.1934 78.36 3.4534 81.18C3.2134 81.78 2.8534 82.08 2.3734 82.08ZM48.3142 81.36C46.5742 81.36 44.9542 80.82 43.4542 79.74C42.0142 78.66 41.2942 77.19 41.2942 75.33C41.2942 73.95 41.7442 72.3 42.6442 70.38C43.5442 68.46 44.7142 66.51 46.1542 64.53C47.6542 62.55 49.3042 60.72 51.1042 59.04C52.9042 57.3 54.6742 55.92 56.4142 54.9C58.2142 53.82 59.8342 53.28 61.2742 53.28C61.7542 53.28 62.2642 53.37 62.8042 53.55C63.4042 53.67 63.8242 53.97 64.0642 54.45C65.2642 54.39 66.1042 54.75 66.5842 55.53C67.0642 56.25 67.3042 57.15 67.3042 58.23C67.3042 59.85 66.8242 61.68 65.8642 63.72C64.9642 65.76 63.8842 67.71 62.6242 69.57C61.3642 71.43 60.2242 72.96 59.2042 74.16L59.7442 74.25C61.4842 74.31 63.0142 73.95 64.3342 73.17C65.7142 72.39 66.9742 71.4 68.1142 70.2C69.3142 69 70.4542 67.86 71.5342 66.78L71.7142 66.6C71.8942 66.6 71.9842 66.75 71.9842 67.05C71.9842 67.17 71.9542 67.26 71.8942 67.32C71.0542 68.52 69.9742 69.75 68.6542 71.01C67.3342 72.21 65.8942 73.23 64.3342 74.07C62.7742 74.85 61.2142 75.24 59.6542 75.24C59.4142 75.24 59.1742 75.24 58.9342 75.24C58.7542 75.24 58.5442 75.21 58.3042 75.15C57.5242 75.99 56.5942 76.89 55.5142 77.85C54.4342 78.81 53.2642 79.65 52.0042 80.37C50.8042 81.03 49.5742 81.36 48.3142 81.36ZM48.8542 80.01C50.4142 80.01 51.9142 79.35 53.3542 78.03C54.8542 76.71 56.0842 75.51 57.0442 74.43C56.6842 74.25 56.2342 73.95 55.6942 73.53C55.1542 73.05 54.8842 72.57 54.8842 72.09C54.8842 71.25 55.4542 70.47 56.5942 69.75C57.7342 68.97 58.9942 68.28 60.3742 67.68C61.7542 67.08 62.7442 66.63 63.3442 66.33C63.9442 65.37 64.4842 64.26 64.9642 63C65.4442 61.68 65.6842 60.45 65.6842 59.31C65.6842 58.65 65.5342 58.08 65.2342 57.6C64.9942 57.12 64.4842 56.88 63.7042 56.88C63.0442 56.88 62.3542 57.03 61.6342 57.33C60.9142 57.63 60.2842 57.93 59.7442 58.23C56.6842 59.85 53.8942 62.07 51.3742 64.89C48.9142 67.71 47.2042 70.83 46.2442 74.25C46.1842 74.61 46.0942 75 45.9742 75.42C45.9142 75.78 45.8842 76.14 45.8842 76.5C45.8842 77.46 46.1242 78.3 46.6042 79.02C47.0842 79.68 47.8342 80.01 48.8542 80.01ZM79.4493 81.36C78.2493 81.36 77.2593 81 76.4793 80.28C75.7593 79.56 75.3993 78.6 75.3993 77.4C75.3993 76.2 75.7593 74.73 76.4793 72.99C77.2593 71.25 78.1893 69.42 79.2693 67.5C80.3493 65.58 81.4293 63.78 82.5093 62.1C83.5893 60.36 84.4593 58.95 85.1193 57.87C84.6993 58.05 84.1893 58.14 83.5893 58.14C82.9293 58.14 82.2393 58.05 81.5193 57.87C80.7993 57.63 80.1093 57.39 79.4493 57.15C79.2693 57.45 78.8193 58.11 78.0993 59.13C77.4393 60.09 76.6293 61.23 75.6693 62.55C74.7693 63.81 73.8393 65.04 72.8793 66.24C71.9193 67.44 71.0793 68.46 70.3593 69.3C69.6993 70.08 69.2493 70.47 69.0093 70.47C68.8293 70.47 68.7393 70.38 68.7393 70.2C68.7393 70.08 68.8293 69.93 69.0093 69.75C69.6693 68.91 70.3293 68.1 70.9893 67.32C71.7093 66.54 72.3993 65.73 73.0593 64.89C74.0793 63.63 75.0393 62.31 75.9393 60.93C76.8393 59.55 77.6493 58.11 78.3693 56.61C78.0093 56.37 77.5293 56.01 76.9293 55.53C76.3293 55.05 76.0293 54.57 76.0293 54.09C76.0293 53.43 76.4193 52.8 77.1993 52.2C77.9793 51.54 78.8493 50.97 79.8093 50.49C80.7693 50.01 81.4893 49.65 81.9693 49.41C82.2093 49.35 82.7493 49.14 83.5893 48.78C84.4893 48.36 84.9693 48.15 85.0293 48.15C85.2693 48.15 85.3893 48.27 85.3893 48.51C85.3893 48.57 84.9993 48.96 84.2193 49.68C83.4993 50.34 82.7493 51.15 81.9693 52.11C81.2493 53.07 80.8893 54.03 80.8893 54.99C80.8893 55.83 81.2493 56.43 81.9693 56.79C82.6893 57.15 83.4093 57.33 84.1293 57.33C84.7893 57.33 85.3293 57.21 85.7493 56.97C85.9293 56.67 86.1693 56.52 86.4693 56.52C86.9493 56.52 87.5493 56.61 88.2693 56.79C88.9893 56.91 89.6493 57.15 90.2493 57.51C90.8493 57.81 91.1493 58.26 91.1493 58.86C91.1493 59.28 91.0293 59.7 90.7893 60.12C90.5493 60.48 90.2793 60.81 89.9793 61.11C89.3793 61.83 88.4793 62.91 87.2793 64.35C86.1393 65.73 84.9393 67.26 83.6793 68.94C82.4793 70.62 81.4593 72.21 80.6193 73.71C79.7793 75.21 79.3593 76.38 79.3593 77.22C79.3593 77.82 79.5693 78.33 79.9893 78.75C80.4093 79.11 80.9193 79.29 81.5193 79.29C82.4793 79.29 83.5893 78.84 84.8493 77.94C86.1093 76.98 87.3693 75.84 88.6293 74.52C89.9493 73.14 91.1793 71.79 92.3193 70.47C93.4593 69.15 94.4193 68.04 95.1993 67.14C95.9793 66.18 96.4293 65.7 96.5493 65.7C96.7893 65.7 96.9093 65.82 96.9093 66.06C96.9093 66.18 96.6093 66.6 96.0093 67.32C95.4093 68.04 94.6293 68.94 93.6693 70.02C92.7693 71.04 91.8093 72.09 90.7893 73.17C89.8293 74.19 88.9893 75.09 88.2693 75.87C87.5493 76.65 87.0693 77.13 86.8293 77.31C85.8693 78.21 84.7293 79.11 83.4093 80.01C82.1493 80.91 80.8293 81.36 79.4493 81.36ZM95.4355 81.36C94.3555 81.36 93.3955 81.06 92.5555 80.46C91.7755 79.8 91.3855 78.9 91.3855 77.76C91.3855 76.74 91.7455 75.36 92.4655 73.62C93.2455 71.88 94.1455 70.02 95.1655 68.04C96.2455 66.06 97.2955 64.23 98.3155 62.55C99.3355 60.87 100.146 59.55 100.746 58.59H97.2355L97.7755 57.69H101.286C102.126 56.31 102.936 54.93 103.716 53.55C104.556 52.17 105.456 50.82 106.416 49.5C106.956 48.72 107.526 48 108.126 47.34C108.786 46.62 109.626 46.26 110.646 46.26C111.006 46.26 111.606 46.38 112.446 46.62C113.286 46.8 114.066 47.04 114.786 47.34C115.566 47.64 115.986 47.97 116.046 48.33C115.146 48.63 114.096 49.41 112.896 50.67C111.756 51.87 110.676 53.16 109.656 54.54C108.636 55.86 107.856 56.91 107.316 57.69H111.456L110.916 58.59H106.686C106.086 59.37 105.186 60.63 103.986 62.37C102.846 64.05 101.646 65.88 100.386 67.86C99.1255 69.84 98.0455 71.7 97.1455 73.44C96.3055 75.12 95.8855 76.41 95.8855 77.31C95.8855 78.51 96.5455 79.11 97.8655 79.11C98.7655 79.11 99.8155 78.66 101.016 77.76C102.216 76.86 103.446 75.75 104.706 74.43C105.966 73.11 107.166 71.79 108.306 70.47C109.446 69.09 110.406 67.95 111.186 67.05C111.966 66.15 112.416 65.7 112.536 65.7C112.716 65.7 112.806 65.82 112.806 66.06C112.806 66.12 112.536 66.48 111.996 67.14C111.516 67.74 111.006 68.34 110.466 68.94C109.926 69.54 109.566 69.93 109.386 70.11C108.606 71.01 107.676 72.09 106.596 73.35C105.576 74.61 104.436 75.87 103.176 77.13C101.916 78.33 100.626 79.35 99.3055 80.19C97.9855 80.97 96.6955 81.36 95.4355 81.36ZM108.192 82.35C107.892 82.35 107.742 82.14 107.742 81.72C107.742 80.88 108.222 79.44 109.182 77.4C110.202 75.3 111.522 72.87 113.142 70.11C114.762 67.35 116.532 64.44 118.452 61.38C120.372 58.32 122.262 55.41 124.122 52.65C125.982 49.83 127.632 47.37 129.072 45.27C130.572 43.17 131.682 41.67 132.402 40.77C131.802 40.83 130.692 41.04 129.072 41.4C127.452 41.7 125.742 42.12 123.942 42.66C122.142 43.14 120.582 43.77 119.262 44.55C118.002 45.27 117.372 46.08 117.372 46.98C117.372 47.28 117.402 47.49 117.462 47.61C117.582 47.73 117.642 47.85 117.642 47.97C117.642 48.39 117.402 48.6 116.922 48.6C116.502 48.6 116.202 48.27 116.022 47.61C115.902 46.89 115.842 46.38 115.842 46.08C115.842 44.7 116.382 43.47 117.462 42.39C118.602 41.25 119.892 40.29 121.332 39.51C122.832 38.67 124.122 38.07 125.202 37.71C128.022 36.75 131.142 36.09 134.562 35.73C138.042 35.31 141.192 35.1 144.012 35.1C145.692 35.1 147.402 35.22 149.142 35.46C150.942 35.64 152.442 36.21 153.642 37.17C154.902 38.07 155.532 39.6 155.532 41.76C155.532 42.24 155.442 42.87 155.262 43.65C155.082 44.37 154.782 45.03 154.362 45.63C154.002 46.17 153.492 46.44 152.832 46.44C152.652 46.44 152.562 46.41 152.562 46.35C152.562 46.23 152.712 45.93 153.012 45.45C153.372 44.97 153.552 44.43 153.552 43.83C153.552 42.93 153.072 42.21 152.112 41.67C151.212 41.13 150.102 40.77 148.782 40.59C147.462 40.35 146.202 40.2 145.002 40.14C143.802 40.08 142.902 40.05 142.302 40.05C140.442 40.05 138.552 40.14 136.632 40.32C137.232 40.56 137.682 40.92 137.982 41.4C135.882 43.74 133.752 46.14 131.592 48.6C129.492 51 127.482 53.46 125.562 55.98H145.452C145.752 55.98 145.902 56.1 145.902 56.34C145.902 56.88 145.602 57.3 145.002 57.6C144.462 57.84 143.982 57.99 143.562 58.05C142.782 58.17 141.942 58.26 141.042 58.32C140.202 58.38 139.362 58.47 138.522 58.59C135.822 58.83 133.062 59.13 130.242 59.49C127.422 59.85 124.722 60.48 122.142 61.38C119.622 64.44 117.432 67.71 115.572 71.19C113.712 74.61 111.732 77.97 109.632 81.27C109.452 81.51 109.242 81.75 109.002 81.99C108.822 82.23 108.552 82.35 108.192 82.35ZM148.422 81.36C146.682 81.36 145.062 80.82 143.562 79.74C142.122 78.66 141.402 77.19 141.402 75.33C141.402 73.95 141.852 72.3 142.752 70.38C143.652 68.46 144.822 66.51 146.262 64.53C147.762 62.55 149.412 60.72 151.212 59.04C153.012 57.3 154.782 55.92 156.522 54.9C158.322 53.82 159.942 53.28 161.382 53.28C161.862 53.28 162.372 53.37 162.912 53.55C163.512 53.67 163.932 53.97 164.172 54.45C165.372 54.39 166.212 54.75 166.692 55.53C167.172 56.25 167.412 57.15 167.412 58.23C167.412 59.85 166.932 61.68 165.972 63.72C165.072 65.76 163.992 67.71 162.732 69.57C161.472 71.43 160.332 72.96 159.312 74.16L159.852 74.25C161.592 74.31 163.122 73.95 164.442 73.17C165.822 72.39 167.082 71.4 168.222 70.2C169.422 69 170.562 67.86 171.642 66.78L171.822 66.6C172.002 66.6 172.092 66.75 172.092 67.05C172.092 67.17 172.062 67.26 172.002 67.32C171.162 68.52 170.082 69.75 168.762 71.01C167.442 72.21 166.002 73.23 164.442 74.07C162.882 74.85 161.322 75.24 159.762 75.24C159.522 75.24 159.282 75.24 159.042 75.24C158.862 75.24 158.652 75.21 158.412 75.15C157.632 75.99 156.702 76.89 155.622 77.85C154.542 78.81 153.372 79.65 152.112 80.37C150.912 81.03 149.682 81.36 148.422 81.36ZM148.962 80.01C150.522 80.01 152.022 79.35 153.462 78.03C154.962 76.71 156.192 75.51 157.152 74.43C156.792 74.25 156.342 73.95 155.802 73.53C155.262 73.05 154.992 72.57 154.992 72.09C154.992 71.25 155.562 70.47 156.702 69.75C157.842 68.97 159.102 68.28 160.482 67.68C161.862 67.08 162.852 66.63 163.452 66.33C164.052 65.37 164.592 64.26 165.072 63C165.552 61.68 165.792 60.45 165.792 59.31C165.792 58.65 165.642 58.08 165.342 57.6C165.102 57.12 164.592 56.88 163.812 56.88C163.152 56.88 162.462 57.03 161.742 57.33C161.022 57.63 160.392 57.93 159.852 58.23C156.792 59.85 154.002 62.07 151.482 64.89C149.022 67.71 147.312 70.83 146.352 74.25C146.292 74.61 146.202 75 146.082 75.42C146.022 75.78 145.992 76.14 145.992 76.5C145.992 77.46 146.232 78.3 146.712 79.02C147.192 79.68 147.942 80.01 148.962 80.01ZM171.997 81.36C170.677 81.36 169.657 80.94 168.937 80.1C168.277 79.2 167.947 78.12 167.947 76.86C167.947 75.9 168.457 74.31 169.477 72.09C170.497 69.87 171.787 67.38 173.347 64.62C174.907 61.86 176.527 59.07 178.207 56.25C179.947 53.43 181.507 50.91 182.887 48.69C184.327 46.47 185.407 44.82 186.127 43.74C186.727 42.84 187.327 41.97 187.927 41.13C188.527 40.23 189.427 39.78 190.627 39.78C190.987 39.78 191.617 39.9 192.517 40.14C193.477 40.38 194.377 40.68 195.217 41.04C196.117 41.34 196.597 41.67 196.657 42.03C195.517 42.45 194.107 43.62 192.427 45.54C190.807 47.4 189.037 49.68 187.117 52.38C185.257 55.02 183.427 57.78 181.627 60.66C179.887 63.48 178.327 66.09 176.947 68.49C175.567 70.83 174.577 72.63 173.977 73.89C173.737 74.43 173.467 75.03 173.167 75.69C172.927 76.35 172.807 77.01 172.807 77.67C172.807 78.63 173.317 79.11 174.337 79.11C175.237 79.11 176.287 78.66 177.487 77.76C178.687 76.86 179.917 75.75 181.177 74.43C182.437 73.11 183.637 71.79 184.777 70.47C185.917 69.09 186.877 67.95 187.657 67.05C188.437 66.15 188.887 65.7 189.007 65.7C189.247 65.7 189.367 65.82 189.367 66.06C189.367 66.12 189.097 66.48 188.557 67.14C188.077 67.74 187.537 68.34 186.937 68.94C186.397 69.54 186.067 69.93 185.947 70.11C185.167 71.01 184.237 72.09 183.157 73.35C182.077 74.61 180.907 75.87 179.647 77.13C178.447 78.33 177.187 79.35 175.867 80.19C174.547 80.97 173.257 81.36 171.997 81.36ZM200.229 53.91C199.629 53.91 199.119 53.7 198.699 53.28C198.339 52.8 198.159 52.26 198.159 51.66C198.159 50.64 198.609 49.68 199.509 48.78C200.469 47.82 201.459 47.34 202.479 47.34C203.079 47.34 203.529 47.55 203.829 47.97C204.189 48.33 204.369 48.81 204.369 49.41C204.369 50.37 203.919 51.36 203.019 52.38C202.179 53.4 201.249 53.91 200.229 53.91ZM187.089 81.36C185.949 81.36 184.989 81.03 184.209 80.37C183.489 79.71 183.129 78.81 183.129 77.67C183.129 76.77 183.429 75.54 184.029 73.98C184.629 72.42 185.379 70.74 186.279 68.94C187.179 67.14 188.049 65.49 188.889 63.99C189.789 62.43 190.509 61.26 191.049 60.48C191.529 59.7 192.069 58.92 192.669 58.14C193.269 57.36 194.079 56.97 195.099 56.97C195.399 56.97 195.939 57.09 196.719 57.33C197.559 57.57 198.339 57.87 199.059 58.23C199.839 58.53 200.229 58.86 200.229 59.22C199.569 59.46 198.729 60.15 197.709 61.29C196.689 62.37 195.609 63.66 194.469 65.16C193.329 66.66 192.249 68.22 191.229 69.84C190.269 71.46 189.459 72.96 188.799 74.34C188.199 75.72 187.899 76.77 187.899 77.49C187.899 78.57 188.439 79.11 189.519 79.11C190.359 79.11 191.379 78.66 192.579 77.76C193.779 76.86 195.009 75.75 196.269 74.43C197.589 73.11 198.819 71.79 199.959 70.47C201.099 69.09 202.059 67.95 202.839 67.05C203.619 66.15 204.069 65.7 204.189 65.7C204.429 65.7 204.549 65.82 204.549 66.06C204.549 66.18 204.249 66.6 203.649 67.32C203.049 68.04 202.269 68.94 201.309 70.02C200.409 71.04 199.449 72.09 198.429 73.17C197.469 74.19 196.629 75.09 195.909 75.87C195.189 76.65 194.709 77.13 194.469 77.31C193.509 78.21 192.369 79.11 191.049 80.01C189.789 80.91 188.469 81.36 187.089 81.36ZM206.342 81.36C204.602 81.36 202.982 80.82 201.482 79.74C200.042 78.66 199.322 77.19 199.322 75.33C199.322 73.95 199.772 72.3 200.672 70.38C201.572 68.46 202.742 66.51 204.182 64.53C205.682 62.55 207.332 60.72 209.132 59.04C210.932 57.3 212.702 55.92 214.442 54.9C216.242 53.82 217.862 53.28 219.302 53.28C219.782 53.28 220.292 53.37 220.832 53.55C221.432 53.67 221.852 53.97 222.092 54.45C223.292 54.39 224.132 54.75 224.612 55.53C225.092 56.25 225.332 57.15 225.332 58.23C225.332 59.85 224.852 61.68 223.892 63.72C222.992 65.76 221.912 67.71 220.652 69.57C219.392 71.43 218.252 72.96 217.232 74.16L217.772 74.25C219.512 74.31 221.042 73.95 222.362 73.17C223.742 72.39 225.002 71.4 226.142 70.2C227.342 69 228.482 67.86 229.562 66.78L229.742 66.6C229.922 66.6 230.012 66.75 230.012 67.05C230.012 67.17 229.982 67.26 229.922 67.32C229.082 68.52 228.002 69.75 226.682 71.01C225.362 72.21 223.922 73.23 222.362 74.07C220.802 74.85 219.242 75.24 217.682 75.24C217.442 75.24 217.202 75.24 216.962 75.24C216.782 75.24 216.572 75.21 216.332 75.15C215.552 75.99 214.622 76.89 213.542 77.85C212.462 78.81 211.292 79.65 210.032 80.37C208.832 81.03 207.602 81.36 206.342 81.36ZM206.882 80.01C208.442 80.01 209.942 79.35 211.382 78.03C212.882 76.71 214.112 75.51 215.072 74.43C214.712 74.25 214.262 73.95 213.722 73.53C213.182 73.05 212.912 72.57 212.912 72.09C212.912 71.25 213.482 70.47 214.622 69.75C215.762 68.97 217.022 68.28 218.402 67.68C219.782 67.08 220.772 66.63 221.372 66.33C221.972 65.37 222.512 64.26 222.992 63C223.472 61.68 223.712 60.45 223.712 59.31C223.712 58.65 223.562 58.08 223.262 57.6C223.022 57.12 222.512 56.88 221.732 56.88C221.072 56.88 220.382 57.03 219.662 57.33C218.942 57.63 218.312 57.93 217.772 58.23C214.712 59.85 211.922 62.07 209.402 64.89C206.942 67.71 205.232 70.83 204.272 74.25C204.212 74.61 204.122 75 204.002 75.42C203.942 75.78 203.912 76.14 203.912 76.5C203.912 77.46 204.152 78.3 204.632 79.02C205.112 79.68 205.862 80.01 206.882 80.01Z" fill="white"/>
</svg>
